<?xml version="1.0" standalone="no"?>
<!DOCTYPE svg PUBLIC "-//W3C//DTD SVG 1.1//EN" "http://www.w3.org/Graphics/SVG/1.1/DTD/svg11.dtd" >
<svg xmlns="http://www.w3.org/2000/svg" xmlns:xlink="http://www.w3.org/1999/xlink" version="1.1">
<metadata>
Created by FontForge 20190801 at Fri Mar  4 11:27:39 2005
 By Jimmy Wärting
\251 Dutch Design: Albert-Jan Pool, 1995. Published by FontShop International FontFont release 15
</metadata>
<defs>
<font id="DIN-Light" horiz-adv-x="514" >
  <font-face 
    font-family="DIN"
    font-weight="300"
    font-stretch="normal"
    units-per-em="1000"
    panose-1="2 0 5 4 4 0 0 2 0 3"
    ascent="800"
    descent="-200"
    x-height="482"
    cap-height="712"
    bbox="-100 -236 1099 975"
    underline-thickness="38"
    underline-position="-160"
    unicode-range="U+0020-FB02"
  />
<missing-glyph horiz-adv-x="1000" 
 />
    <glyph glyph-name=".notdef" horiz-adv-x="1000" 
 />
    <glyph glyph-name=".null" horiz-adv-x="0" 
 />
    <glyph glyph-name="nonmarkingreturn" horiz-adv-x="255" 
 />
    <glyph glyph-name="space" unicode=" " horiz-adv-x="255" 
 />
    <glyph glyph-name="exclam" unicode="!" horiz-adv-x="304" 
d="M194 712h-55l3 -520h49zM200 0v67h-67v-67h67z" />
    <glyph glyph-name="quotedbl" unicode="&#x22;" horiz-adv-x="408" 
d="M313 556v156h-63v-156h63zM158 556v156h-63v-156h63z" />
    <glyph glyph-name="numbersign" unicode="#" horiz-adv-x="639" 
d="M588 437v45h-94l36 230h-50l-36 -230h-175l37 230h-52l-36 -230h-105v-45h99l-25 -153h-103v-44h96l-38 -240h51l37 240h176l-39 -240h51l38 240h103v44h-96l25 153h100zM437 437l-25 -153h-175l25 153h175z" />
    <glyph glyph-name="dollar" unicode="$" horiz-adv-x="587" 
d="M528 191q0 43 -16.5 78.5t-45.5 59.5q-11 9 -23 16t-26.5 12.5t-33.5 9.5t-44 9l-29 5v290q51 -4 84.5 -21.5t62.5 -43.5l35 35q-42 36 -83.5 54.5t-98.5 21.5v89h-45v-89q-93 -6 -146 -57.5t-53 -136.5q0 -83 56 -131q20 -17 54 -32t73 -20l16 -2v-295q-27 1 -49.5 6.5
t-43.5 15t-41.5 25t-41.5 36.5l-38 -38q46 -46 95 -68.5t119 -25.5v-108h45v109q102 5 160 57.5t58 138.5zM265 388q-28 4 -56.5 14t-52.5 30q-37 31 -37 93q0 63 38.5 102t107.5 44v-283zM474 189q0 -66 -44 -103.5t-120 -42.5v287q18 -3 34.5 -5t32 -6t30 -11t28.5 -19
q39 -35 39 -100z" />
    <glyph glyph-name="percent" unicode="%" horiz-adv-x="828" 
d="M759 127v107q0 60 -36.5 97t-94.5 37q-59 0 -95.5 -37t-36.5 -97v-107q0 -60 36.5 -97t95.5 -37q58 0 94.5 37t36.5 97zM603 712h-45l-332 -712h45zM332 478v107q0 60 -36.5 97t-94.5 37q-59 0 -95.5 -37t-36.5 -97v-107q0 -59 36.5 -96t95.5 -37q58 0 94.5 37t36.5 96z
M715 129q0 -45 -20 -71.5t-67 -26.5t-67.5 26.5t-20.5 71.5v103q0 45 20.5 71.5t67.5 26.5t67 -26.5t20 -71.5v-103zM288 480q0 -45 -20.5 -71t-66.5 -26q-47 0 -67.5 26t-20.5 71v103q0 45 20.5 71.5t67.5 26.5t67 -26.5t20 -71.5v-103z" />
    <glyph glyph-name="ampersand" unicode="&#x26;" horiz-adv-x="746" 
d="M662 0l-102 124q34 42 48 96t14 121h-53q0 -34 -2 -59t-7 -45.5t-13 -37.5t-20 -35l-204 247q8 5 21 14t22 15t10 7q34 23 58 53.5t24 74.5q0 30 -11.5 56t-31 45.5t-46 30.5t-56.5 11t-56.5 -11t-46 -30t-31 -45t-11.5 -56q0 -23 7 -44.5t18 -41t25.5 -37.5t28.5 -35
q-32 -21 -61 -42.5t-52 -47t-36.5 -57.5t-13.5 -74q0 -45 16 -82.5t45.5 -64.5t70 -41.5t89.5 -14.5q44 0 80 10.5t63.5 24.5t46 29.5t29.5 25.5l69 -84h69zM405 575q0 -35 -22 -58t-50 -42q-1 -1 -7.5 -5.5t-17 -11.5l-16.5 -11q-21 25 -34.5 43.5t-21.5 33.5t-11 27.5
t-3 26.5q0 40 26 66t65 26t65.5 -27t26.5 -68zM494 121q-54 -48 -100.5 -63.5t-89.5 -15.5q-37 0 -67.5 11.5t-52.5 32.5t-34 50t-12 64q0 34 12.5 60.5t32.5 47.5t45 39t50 35z" />
    <glyph glyph-name="quotesingle" unicode="'" horiz-adv-x="253" 
d="M158 556v156h-63v-156h63z" />
    <glyph glyph-name="parenleft" unicode="(" horiz-adv-x="284" 
d="M217 -59q-17 17 -31 31.5t-23 33.5q-15 31 -15 79v542q0 47 15 79q9 19 23 33.5t31 31.5l-35 35q-23 -23 -38.5 -40t-27.5 -40t-15.5 -46t-3.5 -47v-554q0 -24 3.5 -47t15.5 -46t27.5 -40t38.5 -40z" />
    <glyph glyph-name="parenright" unicode=")" horiz-adv-x="284" 
d="M187 79v554q0 24 -3 47t-16 46q-12 23 -27.5 40t-38.5 40l-37 -37q17 -17 31 -31.5t23 -33.5q8 -16 11 -35t3 -42v-542q0 -23 -3 -42t-11 -35q-9 -19 -23 -33.5t-31 -31.5l37 -37q23 23 38.5 40t27.5 40q13 23 16 46t3 47z" />
    <glyph glyph-name="asterisk" unicode="*" horiz-adv-x="467" 
d="M395 476l-123 68l123 68l-22 38l-120 -73l3 141h-45l3 -141l-120 73l-22 -38l123 -68l-123 -68l22 -38l120 73l-3 -141h45l-3 141l120 -73z" />
    <glyph glyph-name="plus" unicode="+" 
d="M461 240v47h-180v180h-47v-180h-181v-47h181v-181h47v181h180z" />
    <glyph glyph-name="comma" unicode="," horiz-adv-x="258" 
d="M163 -68v136h-68v-204z" />
    <glyph glyph-name="hyphen" unicode="-" horiz-adv-x="426" 
d="M344 240v47h-262v-47h262z" />
    <glyph glyph-name="period" unicode="." horiz-adv-x="264" 
d="M169 0v74h-74v-74h74z" />
    <glyph glyph-name="slash" unicode="/" horiz-adv-x="338" 
d="M338 786h-53l-285 -860h53z" />
    <glyph glyph-name="zero" unicode="0" 
d="M444 184v344q0 42 -14 76.5t-38.5 60t-59 39.5t-75.5 14t-75.5 -14t-59.5 -39.5t-38.5 -60t-13.5 -76.5v-344q0 -42 13.5 -76.5t38.5 -60t59.5 -39.5t75.5 -14t75.5 14t59 39.5t38.5 60t14 76.5zM393 189q0 -32 -8.5 -59t-26 -47.5t-43 -32t-58.5 -11.5t-58.5 11.5
t-43 32t-26 47.5t-8.5 59v334q0 31 8.5 58.5t26 48t43 32t58.5 11.5t58.5 -11.5t43 -32t26 -48t8.5 -58.5v-334z" />
    <glyph glyph-name="one" unicode="1" 
d="M313 0v712h-51l-129 -111v-61l129 114v-654h51z" />
    <glyph glyph-name="two" unicode="2" 
d="M449 0v45h-316l267 349q27 35 38 66t11 71q0 42 -13.5 76.5t-38 59t-59 38t-77.5 13.5q-44 0 -79 -14.5t-59 -39.5t-37 -59t-13 -74h51q0 37 11 64t29.5 44.5t43.5 25.5t53 8q65 0 101 -39t36 -103q0 -31 -9.5 -57.5t-30.5 -53.5l-286 -375v-45h377z" />
    <glyph glyph-name="three" unicode="3" 
d="M447 190q0 68 -27.5 113t-87.5 65q54 23 77.5 64t23.5 98q0 43 -14 77.5t-38.5 59.5t-59.5 38.5t-77 13.5q-78 0 -131.5 -45.5t-61.5 -129.5h51q7 60 43 95t99 35q29 0 54 -9.5t44 -27.5t29.5 -45t10.5 -62q0 -69 -34.5 -106t-106.5 -37h-12v-45h12q82 0 118.5 -40
t36.5 -112q0 -36 -11.5 -64t-32 -47.5t-48 -30t-59.5 -10.5q-28 0 -54 7.5t-47 23.5t-34.5 42t-16.5 62h-51q3 -46 19 -80t43 -56t63 -33t78 -11q43 0 80 13t64 38t42.5 61.5t15.5 84.5z" />
    <glyph glyph-name="four" unicode="4" 
d="M471 117v45h-95v226h-51v-226h-228l262 550h-54l-262 -550v-45h282v-117h51v117h95z" />
    <glyph glyph-name="five" unicode="5" 
d="M451 233q0 25 -2 51t-8 51t-17.5 48t-30.5 42q-43 43 -120 43q-89 0 -135 -53v252h297v45h-342v-364h45q11 36 45.5 55.5t83.5 19.5q44 0 70 -17t40 -44.5t18.5 -61.5t4.5 -67q0 -20 -1 -41.5t-5 -42.5t-12.5 -40t-24.5 -35q-17 -17 -43 -26.5t-55 -9.5q-63 0 -94.5 31
t-39.5 88h-51q6 -74 48 -116q23 -24 58 -36t79 -12q86 0 137 51q19 19 30 41.5t16.5 46.5t7 49.5t1.5 51.5z" />
    <glyph glyph-name="six" unicode="6" 
d="M448 201q0 42 -12.5 78t-36 63t-57.5 42.5t-78 15.5q-47 0 -83 -17l164 329h-51l-183 -369q-22 -45 -31 -79.5t-9 -69.5q0 -44 12.5 -80.5t37 -63t59.5 -41.5t80 -15t80 16.5t59 44.5t36.5 65.5t12.5 80.5zM397 197q0 -72 -37.5 -115t-100.5 -43t-100 43t-37 115t37 115
t100 43q34 0 60 -12.5t43 -34.5t26 -50.5t9 -60.5z" />
    <glyph glyph-name="seven" unicode="7" 
d="M459 667v45h-373v-157h51v112h270l-252 -667h52z" />
    <glyph glyph-name="eight" unicode="8" 
d="M460 192q0 62 -30.5 106.5t-81.5 71.5q97 52 97 162q0 39 -14 73t-38.5 59t-59 39.5t-76.5 14.5t-76.5 -14.5t-59 -39.5t-38.5 -59t-14 -73q0 -55 25 -95.5t73 -66.5q-51 -27 -82 -71.5t-31 -106.5q0 -43 15.5 -79t43 -62.5t64.5 -41.5t80 -15t80 15t64.5 41.5t43 62.5
t15.5 79zM394 532q0 -31 -10 -57t-28 -44.5t-43.5 -29t-55.5 -10.5t-55.5 10.5t-43.5 29t-28 44.5t-10 57t10 56.5t28 44.5t43.5 29.5t55.5 10.5t55.5 -10.5t43.5 -29.5t28 -44.5t10 -56.5zM409 192q0 -33 -11.5 -61t-32 -48.5t-48.5 -32t-60 -11.5t-60 11.5t-48.5 32
t-32 48.5t-11.5 61t11.5 61t32 48.5t48.5 32.5t60 12t60 -12t48.5 -32.5t32 -48.5t11.5 -61z" />
    <glyph glyph-name="nine" unicode="9" 
d="M443 518q0 43 -12.5 80t-37 63.5t-59.5 41.5t-80 15t-80 -16.5t-59 -44.5t-36.5 -65.5t-12.5 -80.5q0 -42 12 -78t35.5 -63t57.5 -42.5t78 -15.5q48 0 84 17l-164 -329h51l183 369q22 45 31 79.5t9 69.5zM392 515q0 -72 -37.5 -115t-100.5 -43q-34 0 -59.5 12.5t-43 34.5
t-26 50.5t-8.5 60.5q0 72 37 115t100 43t100.5 -43t37.5 -115z" />
    <glyph glyph-name="colon" unicode=":" horiz-adv-x="292" 
d="M197 312v74h-74v-74h74zM197 0v74h-74v-74h74z" />
    <glyph glyph-name="semicolon" unicode=";" horiz-adv-x="292" 
d="M197 312v74h-74v-74h74zM193 -68v136h-68v-204z" />
    <glyph glyph-name="less" unicode="&#x3c;" horiz-adv-x="1027" 
d="M970 238v50h-819l379 379h-69l-404 -404l404 -404h69l-379 379h819z" />
    <glyph glyph-name="equal" unicode="=" 
d="M461 316v47h-408v-47h408zM461 163v47h-408v-47h408z" />
    <glyph glyph-name="greater" unicode="&#x3e;" horiz-adv-x="1027" 
d="M970 263l-404 404h-69l379 -379h-819v-50h819l-379 -379h69z" />
    <glyph glyph-name="question" unicode="?" horiz-adv-x="488" 
d="M438 542q0 37 -13.5 69.5t-37.5 56t-57 37t-71 13.5q-40 0 -73 -14t-56.5 -38t-36.5 -56t-13 -68h51q0 26 9 50t25.5 42t40.5 28.5t53 10.5q27 0 50.5 -10t41 -27.5t27 -41.5t9.5 -52q0 -29 -9.5 -49t-24.5 -43l-84 -124q-15 -22 -22 -41.5t-7 -48.5v-45h51v47q0 12 4 29
t14 31l85 125q20 29 32 56.5t12 62.5zM299 0v67h-67v-67h67z" />
    <glyph glyph-name="at" unicode="@" horiz-adv-x="697" 
d="M620 0v507q0 95 -56 151q-26 26 -61.5 40t-79.5 14h-150q-89 0 -141 -54q-26 -27 -40.5 -65t-14.5 -86v-350q0 -33 3.5 -56.5t12.5 -42t24 -34t38 -31.5l35 35q-19 13 -31 25.5t-19 27t-9.5 32.5t-2.5 44v353q0 44 9 70t32 49q22 22 48.5 32t64.5 10h132q38 0 65 -10
t49 -32q23 -23 32 -49.5t9 -69.5v-89q-26 35 -60 51.5t-80 16.5q-45 0 -82.5 -17.5t-59.5 -49.5q-21 -30 -30 -72.5t-9 -108.5q0 -68 10 -110t33 -73q50 -65 139 -65q48 0 81 16t58 50v-59h51zM569 241q0 -37 -4 -73t-18.5 -65t-41 -47t-71.5 -18t-71.5 18t-41 47t-18.5 65
t-4 73t4 73t18.5 65t41 47t71.5 18t71.5 -18t41 -47t18.5 -65t4 -73z" />
    <glyph glyph-name="A" unicode="A" horiz-adv-x="602" 
d="M587 0l-262 712h-48l-262 -712h58l62 173h332l62 -173h58zM450 221h-298l149 419z" />
    <glyph glyph-name="B" unicode="B" horiz-adv-x="671" 
d="M589 194q0 62 -32 107t-90 65q52 17 81.5 60.5t29.5 99.5q0 44 -15.5 78.5t-43 58.5t-65.5 36.5t-82 12.5h-262v-712h270q47 0 85.5 12.5t66 37t42.5 60.5t15 84zM524 526q0 -37 -12.5 -63t-34 -42.5t-50.5 -24.5t-61 -8h-202v276h202q32 0 61 -8t50.5 -24.5t34 -42.5
t12.5 -63zM535 194q0 -69 -44 -107.5t-117 -38.5h-210v292h210q73 0 117 -38.5t44 -107.5z" />
    <glyph glyph-name="C" unicode="C" horiz-adv-x="644" 
d="M568 202h-53q-16 -74 -66.5 -117t-122.5 -43q-38 0 -73 14t-62 41q-19 19 -30 40.5t-16.5 51t-7 70t-1.5 97.5t1.5 97.5t7 70t16.5 51t30 40.5q27 27 62 41t73 14q72 0 121.5 -43t65.5 -117h55q-9 48 -30 86.5t-52 65.5t-71.5 41.5t-88.5 14.5q-51 0 -97 -19t-81 -54
q-24 -24 -37.5 -50t-20 -59t-7.5 -76.5t-1 -103.5t1 -104t7.5 -77t20 -58.5t37.5 -49.5q35 -35 81 -54t97 -19q47 0 87.5 14.5t72 41.5t52.5 65.5t30 86.5z" />
    <glyph glyph-name="D" unicode="D" horiz-adv-x="678" 
d="M596 366q0 36 -0.5 74.5t-7 75t-20.5 70.5t-41 61q-65 65 -178 65h-239v-712h239q56 0 101 16.5t77 48.5q27 27 41 64t20.5 77.5t7 82t0.5 77.5zM542 366q0 -30 -0.5 -66.5t-5 -73t-15.5 -69t-32 -54.5q-31 -32 -70.5 -43.5t-82.5 -11.5h-172v616h172q43 0 82.5 -11.5
t70.5 -43.5q21 -22 32 -51.5t15.5 -62t5 -66t0.5 -63.5z" />
    <glyph glyph-name="E" unicode="E" horiz-adv-x="598" 
d="M542 0v48h-378v287h322v48h-322v281h378v48h-432v-712h432z" />
    <glyph glyph-name="F" unicode="F" horiz-adv-x="576" 
d="M542 664v48h-432v-712h54v323h322v48h-322v293h378z" />
    <glyph glyph-name="G" unicode="G" horiz-adv-x="651" 
d="M571 248v116h-245v-48h191v-64q0 -46 -10 -79t-33 -62q-28 -34 -67 -51.5t-81 -17.5q-38 0 -73 14t-62 41q-19 19 -30 40.5t-16.5 51t-7 70t-1.5 97.5t1.5 97.5t7 70t16.5 51t30 40.5q27 27 62 41t73 14q72 0 122.5 -43t66.5 -117h54q-8 47 -29.5 85.5t-53.5 65.5
t-72.5 42t-87.5 15q-51 0 -97 -19t-81 -54q-24 -24 -37.5 -50t-20 -59t-7.5 -76.5t-1 -103.5t1 -104t7.5 -77t20 -58.5t37.5 -49.5q35 -35 81 -54t97 -19q54 0 103 21.5t84 60.5q32 34 45 75t13 97z" />
    <glyph glyph-name="H" unicode="H" horiz-adv-x="699" 
d="M589 0v712h-54v-329h-371v329h-54v-712h54v335h371v-335h54z" />
    <glyph glyph-name="I" unicode="I" horiz-adv-x="274" 
d="M164 0v712h-54v-712h54z" />
    <glyph glyph-name="J" unicode="J" horiz-adv-x="498" 
d="M398 210v502h-54v-491q0 -86 -40.5 -132.5t-117.5 -46.5q-47 0 -73 15t-46 35l-37 -37q61 -61 156 -61q48 0 87.5 15.5t67 44t42.5 68t15 88.5z" />
    <glyph glyph-name="K" unicode="K" horiz-adv-x="645" 
d="M627 0l-257 440l220 272h-65l-361 -445v445h-54v-712h54v193l170 206l229 -399h64z" />
    <glyph glyph-name="L" unicode="L" horiz-adv-x="572" 
d="M542 0v48h-378v664h-54v-712h432z" />
    <glyph glyph-name="M" unicode="M" horiz-adv-x="818" 
d="M708 0v712h-54l-242 -549l-248 549h-54v-712h54v587l220 -487h54l216 487v-587h54z" />
    <glyph glyph-name="N" unicode="N" horiz-adv-x="739" 
d="M629 0v712h-54v-617l-411 617h-54v-712h54v619l411 -619h54z" />
    <glyph glyph-name="O" unicode="O" horiz-adv-x="652" 
d="M570 356q0 60 -1 103.5t-7.5 76.5t-20 59t-37.5 50q-35 35 -81 54t-97 19t-97 -19t-81 -54q-24 -24 -37.5 -50t-20 -59t-7.5 -76.5t-1 -103.5t1 -104t7.5 -77t20 -58.5t37.5 -49.5q35 -35 81 -54t97 -19t97 19t81 54q24 24 37.5 49.5t20 58.5t7.5 77t1 104zM516 356
q0 -57 -1.5 -97.5t-7 -70t-16.5 -51t-30 -40.5q-27 -27 -62 -41t-73 -14t-73 14t-62 41q-19 19 -30 40.5t-16.5 51t-7 70t-1.5 97.5t1.5 97.5t7 70t16.5 51t30 40.5q27 27 62 41t73 14t73 -14t62 -41q19 -19 30 -40.5t16.5 -51t7 -70t1.5 -97.5z" />
    <glyph glyph-name="P" unicode="P" horiz-adv-x="631" 
d="M586 507q0 49 -16.5 87t-45 64t-68 40t-85.5 14h-261v-712h54v302h207q46 0 85.5 13.5t68 40t45 64.5t16.5 87zM532 507q0 -40 -12.5 -69.5t-34.5 -49t-52.5 -29t-67.5 -9.5h-201v314h201q37 0 67.5 -9.5t52.5 -29t34.5 -49t12.5 -69.5z" />
    <glyph glyph-name="Q" unicode="Q" horiz-adv-x="651" 
d="M603 0l-84 84q19 22 29 46.5t15 56.5t6 73t1 96q0 60 -1 103.5t-7.5 76.5t-20 59t-37.5 50q-35 35 -81 54t-97 19t-97 -19t-81 -54q-24 -24 -37.5 -50t-20 -59t-7.5 -76.5t-1 -103.5t1 -104t7.5 -77t20 -58.5t37.5 -49.5q35 -35 81 -54t97 -19q43 0 83.5 14t73.5 40
l84 -84zM516 356q0 -48 -1 -84.5t-4.5 -64t-10 -48.5t-18.5 -38l-99 99l-36 -36l100 -100q-53 -42 -121 -42q-38 0 -73 14t-62 41q-19 19 -30 40.5t-16.5 51t-7 70t-1.5 97.5t1.5 97.5t7 70t16.5 51t30 40.5q27 27 62 41t73 14t73 -14t62 -41q19 -19 30 -40.5t16.5 -51
t7 -70t1.5 -97.5z" />
    <glyph glyph-name="R" unicode="R" horiz-adv-x="657" 
d="M593 0l-172 329q75 13 119.5 62.5t44.5 129.5q0 46 -15.5 82t-43 60t-65 36.5t-80.5 12.5h-271v-712h54v328h196l170 -328h63zM531 520q0 -37 -11.5 -64t-32.5 -45t-50 -26.5t-63 -8.5h-210v288h210q34 0 63 -8.5t50 -26.5t32.5 -45t11.5 -64z" />
    <glyph glyph-name="S" unicode="S" horiz-adv-x="587" 
d="M528 191q0 43 -16.5 78.5t-45.5 59.5q-11 9 -23 16.5t-26.5 13t-33.5 9.5t-44 8l-77 12q-30 5 -58.5 16.5t-47.5 27.5q-37 31 -37 93q0 68 43.5 107.5t121.5 39.5q32 0 57 -5t45 -13.5t37 -20.5t34 -27l35 35q-46 40 -92.5 58.5t-112.5 18.5q-103 0 -162 -52.5
t-59 -142.5q0 -84 56 -131q46 -40 127 -52l83 -13q22 -3 37 -6.5t26.5 -7.5t20.5 -10t19 -14q39 -35 39 -100q0 -70 -49 -108.5t-134 -38.5q-32 0 -58.5 4t-50.5 14t-46.5 26t-46.5 40l-38 -38q24 -24 49.5 -42t54 -29.5t61 -17t72.5 -5.5q112 0 176 53t64 144z" />
    <glyph glyph-name="T" unicode="T" horiz-adv-x="539" 
d="M509 664v48h-479v-48h212v-664h54v664h213z" />
    <glyph glyph-name="U" unicode="U" horiz-adv-x="688" 
d="M588 231v481h-54v-474q0 -44 -13.5 -80.5t-38.5 -62t-60 -39.5t-78 -14t-78 14t-60 39.5t-38.5 62t-13.5 80.5v474h-54v-481q0 -52 18 -95.5t50.5 -75t77 -49t98.5 -17.5t98.5 17.5t77 49t50.5 75t18 95.5z" />
    <glyph glyph-name="V" unicode="V" horiz-adv-x="534" 
d="M524 712h-57l-200 -617l-200 617h-57l234 -712h46z" />
    <glyph glyph-name="W" unicode="W" horiz-adv-x="842" 
d="M822 712h-57l-150 -619l-166 619h-56l-166 -619l-150 619h-57l178 -712h55l168 620l168 -620h55z" />
    <glyph glyph-name="X" unicode="X" horiz-adv-x="532" 
d="M514 0l-220 365l204 347h-62l-171 -299l-170 299h-63l204 -347l-218 -365h61l186 317l186 -317h63z" />
    <glyph glyph-name="Y" unicode="Y" horiz-adv-x="494" 
d="M484 712h-58l-177 -360l-181 360h-58l210 -417v-295h54v295z" />
    <glyph glyph-name="Z" unicode="Z" horiz-adv-x="559" 
d="M496 0v48h-378l378 616v48h-418v-48h360l-375 -607v-57h433z" />
    <glyph glyph-name="bracketleft" unicode="[" horiz-adv-x="290" 
d="M245 -74v45h-97v770h97v45h-148v-860h148z" />
    <glyph glyph-name="backslash" unicode="\" horiz-adv-x="338" 
d="M338 -74l-285 860h-53l285 -860h53z" />
    <glyph glyph-name="bracketright" unicode="]" horiz-adv-x="290" 
d="M193 -74v860h-148v-42h100v-776h-100v-42h148z" />
    <glyph glyph-name="asciicircum" unicode="^" 
d="M438 422l-158 296h-46l-158 -296h51l130 242l130 -242h51z" />
    <glyph glyph-name="underscore" unicode="_" 
d="M514 -160v38h-514v-38h514z" />
    <glyph glyph-name="grave" unicode="`" horiz-adv-x="500" 
d="M297 590l-97 147h-67l106 -147h58z" />
    <glyph glyph-name="a" unicode="a" horiz-adv-x="524" 
d="M431 0v330q0 76 -45.5 117t-141.5 41q-59 0 -99 -15.5t-71 -58.5l37 -32q23 33 52.5 47t80.5 14q74 0 105 -30t31 -88v-54h-156q-79 0 -123.5 -36.5t-44.5 -102.5q0 -27 9 -52t26 -42q23 -24 55.5 -34t86.5 -10q51 0 83.5 11.5t63.5 42.5v-48h51zM380 168q0 -67 -27 -92
q-26 -25 -56.5 -31t-63.5 -6q-66 0 -96 23t-30 71q0 97 123 97h150v-62z" />
    <glyph glyph-name="b" unicode="b" horiz-adv-x="540" 
d="M471 241q0 57 -12.5 112.5t-49.5 92.5q-19 19 -49.5 30.5t-68.5 11.5q-41 0 -76 -13t-67 -55v292h-51v-712h51v62q32 -42 67 -55t76 -13q38 0 68.5 11.5t49.5 30.5q37 37 49.5 92.5t12.5 112.5zM420 241q0 -38 -4.5 -74t-19 -64.5t-41.5 -46t-71 -17.5t-71 17.5t-41.5 46
t-19 64.5t-4.5 74q0 37 4.5 73.5t19 65t41.5 46t71 17.5t71 -17.5t41.5 -46t19 -65t4.5 -73.5z" />
    <glyph glyph-name="c" unicode="c" horiz-adv-x="493" 
d="M440 68l-35 32q-15 -17 -29.5 -29t-29 -19t-30.5 -10t-35 -3q-41 0 -73.5 16t-54.5 48q-18 26 -25.5 57.5t-7.5 80.5t7.5 80.5t25.5 57.5q22 32 54.5 48t73.5 16q38 0 65.5 -13.5t58.5 -47.5l35 32q-20 21 -38 35.5t-36.5 23t-39 12t-45.5 3.5q-49 0 -88.5 -17t-67 -49
t-42 -78t-14.5 -103t14.5 -103t42 -78t67 -49t88.5 -17q25 0 45.5 3.5t39 12t36.5 23t38 35.5z" />
    <glyph glyph-name="d" unicode="d" horiz-adv-x="540" 
d="M443 0v712h-51v-292q-32 42 -67 55t-76 13q-38 0 -68.5 -11.5t-49.5 -30.5q-37 -37 -49.5 -92.5t-12.5 -112.5t12.5 -112.5t49.5 -92.5q19 -19 49.5 -30.5t68.5 -11.5q41 0 76 13t67 55v-62h51zM392 241q0 -38 -4.5 -74t-19 -64.5t-41.5 -46t-71 -17.5t-71 17.5t-41.5 46
t-19 64.5t-4.5 74q0 37 4.5 73.5t19 65t41.5 46t71 17.5t71 -17.5t41.5 -46t19 -65t4.5 -73.5z" />
    <glyph glyph-name="e" unicode="e" horiz-adv-x="523" 
d="M455 230v23q0 111 -51 173t-142 62t-142 -65t-51 -182q0 -121 52.5 -184t152.5 -63q30 0 54 4.5t44.5 14t39 23.5t36.5 32l-38 30q-31 -31 -60.5 -44.5t-72.5 -13.5q-77 0 -117 49t-40 141h335zM404 271h-284q1 17 2 29.5t3 22t4.5 19t7.5 20.5q16 38 49.5 59.5
t75.5 21.5t75.5 -21.5t49.5 -59.5q4 -11 7 -20.5t5 -19t3 -22t2 -29.5z" />
    <glyph glyph-name="f" unicode="f" horiz-adv-x="304" 
d="M272 444v38h-109v105q0 38 18 59t56 21h35v45h-44q-57 0 -86.5 -35.5t-29.5 -90.5v-104h-66v-38h66v-444h51v444h109z" />
    <glyph glyph-name="g" unicode="g" horiz-adv-x="540" 
d="M443 -27v509h-51v-62q-32 42 -67 55t-76 13q-38 0 -68.5 -11.5t-49.5 -30.5q-37 -37 -49.5 -92.5t-12.5 -112.5t12.5 -112.5t49.5 -92.5q19 -19 49.5 -30.5t68.5 -11.5q41 0 76 13t67 55v-86q0 -36 -8.5 -66.5t-26.5 -53t-45.5 -35t-65.5 -12.5q-23 0 -40 3.5t-31 10
t-27 16.5t-27 23l-34 -34q19 -17 36 -29t35.5 -20t39.5 -11.5t48 -3.5q47 0 83.5 15.5t62 43.5t38.5 66.5t13 83.5zM392 241q0 -38 -4.5 -74t-19 -64.5t-41.5 -46t-71 -17.5t-71 17.5t-41.5 46t-19 64.5t-4.5 74q0 37 4.5 73.5t19 65t41.5 46t71 17.5t71 -17.5t41.5 -46
t19 -65t4.5 -73.5z" />
    <glyph glyph-name="h" unicode="h" horiz-adv-x="559" 
d="M468 0v308q0 84 -47.5 132t-130.5 48q-88 0 -142 -63v287h-51v-712h51v299q0 69 35.5 106.5t100.5 37.5t99 -37t34 -107v-299h51z" />
    <glyph glyph-name="i" unicode="i" horiz-adv-x="245" 
d="M154 649v63h-63v-63h63zM148 0v482h-51v-482h51z" />
    <glyph glyph-name="j" unicode="j" horiz-adv-x="245" 
d="M154 649v63h-63v-63h63zM148 -105v587h-51v-586q0 -41 -15.5 -61t-58.5 -20h-35v-45h44q59 0 87.5 34t28.5 91z" />
    <glyph glyph-name="k" unicode="k" horiz-adv-x="527" 
d="M487 0l-194 302l159 180h-65l-239 -272v502h-51v-712h51v138l110 127l166 -265h63z" />
    <glyph glyph-name="l" unicode="l" horiz-adv-x="287" 
d="M255 0v45h-35q-43 0 -58.5 20t-15.5 61v586h-51v-587q0 -57 28.5 -91t87.5 -34h44z" />
    <glyph glyph-name="m" unicode="m" horiz-adv-x="878" 
d="M787 0v308q0 86 -50 134q-23 22 -55 34t-72 12q-54 0 -95.5 -22.5t-68.5 -65.5q-22 43 -61.5 65.5t-93.5 22.5q-89 0 -143 -63v57h-51v-482h51v299q0 69 35.5 106.5t100.5 37.5t99 -37t34 -107v-299h51v308q0 62 36.5 98.5t99.5 36.5q65 0 99 -37t34 -107v-299h50z" />
    <glyph glyph-name="n" unicode="n" horiz-adv-x="559" 
d="M468 0v308q0 86 -50 134q-48 46 -128 46q-88 0 -142 -63v57h-51v-482h51v299q0 69 35.5 106.5t100.5 37.5t99 -37t34 -107v-299h51z" />
    <glyph glyph-name="o" unicode="o" horiz-adv-x="526" 
d="M457 241q0 52 -11 104t-49 90q-26 26 -59.5 39.5t-74.5 13.5q-81 0 -134 -53q-38 -38 -49 -90t-11 -104t11 -104t49 -90q53 -53 134 -53q41 0 74.5 13.5t59.5 39.5q38 38 49 90t11 104zM406 241q0 -21 -1 -43t-5.5 -43.5t-13 -40.5t-23.5 -34q-20 -20 -45.5 -30.5
t-54.5 -10.5q-59 0 -100 41q-15 15 -23.5 34t-13 40.5t-5.5 43.5t-1 43t1 43t5.5 43.5t13 40.5t23.5 34q41 41 100 41q29 0 54.5 -10.5t45.5 -30.5q15 -15 23.5 -34t13 -40.5t5.5 -43.5t1 -43z" />
    <glyph glyph-name="p" unicode="p" horiz-adv-x="540" 
d="M471 241q0 57 -12.5 112.5t-49.5 92.5q-19 19 -49.5 30.5t-68.5 11.5q-41 0 -76 -13t-67 -55v62h-51v-712h51v292q32 -42 67 -55t76 -13q38 0 68.5 11.5t49.5 30.5q37 37 49.5 92.5t12.5 112.5zM420 241q0 -38 -4.5 -74t-19 -64.5t-41.5 -46t-71 -17.5t-71 17.5t-41.5 46
t-19 64.5t-4.5 74q0 37 4.5 73.5t19 65t41.5 46t71 17.5t71 -17.5t41.5 -46t19 -65t4.5 -73.5z" />
    <glyph glyph-name="q" unicode="q" horiz-adv-x="540" 
d="M443 -230v712h-51v-62q-32 42 -67 55t-76 13q-38 0 -68.5 -11.5t-49.5 -30.5q-37 -37 -49.5 -92.5t-12.5 -112.5t12.5 -112.5t49.5 -92.5q19 -19 49.5 -30.5t68.5 -11.5q41 0 76 13t67 55v-292h51zM392 241q0 -38 -4.5 -74t-19 -64.5t-41.5 -46t-71 -17.5t-71 17.5
t-41.5 46t-19 64.5t-4.5 74q0 37 4.5 73.5t19 65t41.5 46t71 17.5t71 -17.5t41.5 -46t19 -65t4.5 -73.5z" />
    <glyph glyph-name="r" unicode="r" horiz-adv-x="409" 
d="M405 442q-26 26 -53.5 36t-62.5 10q-43 0 -81.5 -18t-59.5 -52v64h-51v-482h51v297q0 29 8.5 55.5t25 46.5t40.5 32t55 12q30 0 49.5 -8t41.5 -30z" />
    <glyph glyph-name="s" unicode="s" horiz-adv-x="494" 
d="M438 137q0 35 -11 58t-29.5 37.5t-44.5 21t-56 9.5l-78 7q-51 5 -74.5 24t-23.5 57q0 45 31.5 69t91.5 24q79 0 135 -41l34 34q-32 24 -75.5 37.5t-93.5 13.5q-79 0 -126 -37t-47 -100q0 -114 145 -126l80 -7q48 -5 70 -24t22 -57q0 -49 -37 -73.5t-108 -24.5
q-102 0 -158 59l-35 -35q37 -35 84.5 -52t110.5 -17q89 0 141 38.5t52 104.5z" />
    <glyph glyph-name="t" unicode="t" horiz-adv-x="325" 
d="M269 0v45h-35q-38 0 -56 21t-18 59v319h109v38h-109v154h-51v-154h-66v-38h66v-318q0 -55 29.5 -90.5t86.5 -35.5h44z" />
    <glyph glyph-name="u" unicode="u" horiz-adv-x="559" 
d="M462 0v482h-51v-299q0 -69 -35.5 -106.5t-100.5 -37.5t-99 37t-34 107v299h-51v-308q0 -86 50 -134q48 -46 128 -46q88 0 142 63v-57h51z" />
    <glyph glyph-name="v" unicode="v" horiz-adv-x="430" 
d="M416 482h-56l-145 -422l-145 422h-56l176 -482h50z" />
    <glyph glyph-name="w" unicode="w" horiz-adv-x="712" 
d="M698 482h-56l-123 -422l-138 422h-50l-138 -422l-123 422h-56l154 -482h52l136 402l136 -402h52z" />
    <glyph glyph-name="x" unicode="x" horiz-adv-x="460" 
d="M420 0l-163 246l156 236h-62l-120 -194l-122 194h-62l156 -236l-163 -246h62l129 203l127 -203h62z" />
    <glyph glyph-name="y" unicode="y" horiz-adv-x="430" 
d="M416 482h-56l-145 -422l-145 422h-56l176 -482l-39 -107q-7 -18 -13.5 -30.5t-16.5 -20.5t-23.5 -11.5t-34.5 -3.5h-19v-45h24q24 0 48.5 7t42.5 24q19 17 33 56z" />
    <glyph glyph-name="z" unicode="z" horiz-adv-x="452" 
d="M398 0v45h-291l291 389v48h-328v-45h274l-290 -389v-48h344z" />
    <glyph glyph-name="braceleft" unicode="{" horiz-adv-x="316" 
d="M266 -74v45h-13q-27 0 -39 2.5t-20 10.5t-11 22.5t-3 42.5v207q0 39 -14.5 61.5t-46.5 38.5q32 16 46.5 38.5t14.5 61.5v207q0 28 3 42.5t11 22.5t20 10.5t39 2.5h13v45h-14q-37 0 -59.5 -6t-37.5 -21q-14 -14 -20 -34t-6 -61v-207q0 -42 -18 -60q-8 -8 -18.5 -13.5
t-24.5 -5.5h-18v-44h18q14 0 24.5 -5.5t18.5 -13.5q18 -18 18 -60v-207q0 -41 6 -61t20 -34q15 -15 37.5 -21t59.5 -6h14z" />
    <glyph glyph-name="bar" unicode="|" horiz-adv-x="317" 
d="M184 -74v860h-51v-860h51z" />
    <glyph glyph-name="braceright" unicode="}" horiz-adv-x="316" 
d="M266 334v44h-18q-14 0 -24.5 5.5t-18.5 13.5q-18 18 -18 60v207q0 41 -6 61t-20 34q-15 15 -37.5 21t-59.5 6h-14v-45h13q27 0 39 -2.5t20 -10.5t11 -22.5t3 -42.5v-207q0 -39 14.5 -61.5t46.5 -38.5q-32 -16 -46.5 -38.5t-14.5 -61.5v-207q0 -28 -3 -42.5t-11 -22.5
t-20 -10.5t-39 -2.5h-13v-45h14q37 0 59.5 6t37.5 21q14 14 20 34t6 61v207q0 42 18 60q8 8 18.5 13.5t24.5 5.5h18z" />
    <glyph glyph-name="asciitilde" unicode="~" 
d="M461 277l-31 31q-15 -15 -26 -24t-20 -13.5t-18 -6t-19 -1.5q-20 0 -37.5 7t-38.5 16q-27 11 -52 21t-50 10q-15 0 -27 -2t-25 -8.5t-28.5 -19t-35.5 -32.5l31 -31q15 15 26 24t20 13.5t17.5 6t19.5 1.5q20 0 37.5 -7t38.5 -16q27 -11 52 -21t50 -10q15 0 27 2t25 8.5
t28.5 19t35.5 32.5z" />
    <glyph glyph-name="Adieresis" unicode="&#xc4;" horiz-adv-x="602" 
d="M587 0l-262 712h-48l-262 -712h58l62 173h332l62 -173h58zM450 221h-298l149 419zM434 790v77h-58v-77h58zM226 790v77h-58v-77h58z" />
    <glyph glyph-name="Aring" unicode="&#xc5;" horiz-adv-x="602" 
d="M587 0l-262 712h-48l-262 -712h58l62 173h332l62 -173h58zM450 221h-298l149 419zM415 861q0 24 -9 44.5t-24.5 36t-36 24.5t-44.5 9t-44.5 -9t-36 -24.5t-24.5 -36t-9 -44.5t9 -44.5t24.5 -36.5t36 -25t44.5 -9t44.5 9t36 25t24.5 36.5t9 44.5zM374 861
q0 -30 -21.5 -51.5t-51.5 -21.5t-51.5 21.5t-21.5 51.5t21.5 51t51.5 21t51.5 -21t21.5 -51z" />
    <glyph glyph-name="Ccedilla" unicode="&#xc7;" horiz-adv-x="644" 
d="M568 202h-53q-16 -74 -66.5 -117t-122.5 -43q-38 0 -73 14t-62 41q-19 19 -30 40.5t-16.5 51t-7 70t-1.5 97.5t1.5 97.5t7 70t16.5 51t30 40.5q27 27 62 41t73 14q72 0 121.5 -43t65.5 -117h55q-9 48 -30 86.5t-52 65.5t-71.5 41.5t-88.5 14.5q-51 0 -97 -19t-81 -54
q-24 -24 -37.5 -50t-20 -59t-7.5 -76.5t-1 -103.5t1 -104t7.5 -77t20 -58.5t37.5 -49.5q35 -35 81 -54t97 -19q47 0 87.5 14.5t72 41.5t52.5 65.5t30 86.5zM366 -70h-55l-72 -150h63z" />
    <glyph glyph-name="Eacute" unicode="&#xc9;" horiz-adv-x="598" 
d="M542 0v48h-378v287h322v48h-322v281h378v48h-432v-712h432zM431 927h-67l-97 -147h58z" />
    <glyph glyph-name="Ntilde" unicode="&#xd1;" horiz-adv-x="739" 
d="M629 0v712h-54v-617l-411 617h-54v-712h54v619l411 -619h54zM519 843l-30 29q-23 -23 -35.5 -28t-23.5 -5q-15 0 -27.5 5.5t-28.5 15.5q-18 11 -32.5 17.5t-36.5 6.5q-8 0 -16 -1t-18.5 -5.5t-24 -14.5t-30.5 -27l30 -29q23 23 35 28t24 5q15 0 28.5 -6.5t27.5 -14.5
q17 -10 32.5 -17t36.5 -7q7 0 15 1t19 5.5t24.5 14.5t30.5 27z" />
    <glyph glyph-name="Odieresis" unicode="&#xd6;" horiz-adv-x="652" 
d="M570 356q0 60 -1 103.5t-7.5 76.5t-20 59t-37.5 50q-35 35 -81 54t-97 19t-97 -19t-81 -54q-24 -24 -37.5 -50t-20 -59t-7.5 -76.5t-1 -103.5t1 -104t7.5 -77t20 -58.5t37.5 -49.5q35 -35 81 -54t97 -19t97 19t81 54q24 24 37.5 49.5t20 58.5t7.5 77t1 104zM516 356
q0 -57 -1.5 -97.5t-7 -70t-16.5 -51t-30 -40.5q-27 -27 -62 -41t-73 -14t-73 14t-62 41q-19 19 -30 40.5t-16.5 51t-7 70t-1.5 97.5t1.5 97.5t7 70t16.5 51t30 40.5q27 27 62 41t73 14t73 -14t62 -41q19 -19 30 -40.5t16.5 -51t7 -70t1.5 -97.5zM459 790v77h-58v-77h58z
M251 790v77h-58v-77h58z" />
    <glyph glyph-name="Udieresis" unicode="&#xdc;" horiz-adv-x="687" 
d="M588 231v481h-54v-474q0 -44 -13.5 -80.5t-38.5 -62t-60 -39.5t-78 -14t-78 14t-60 39.5t-38.5 62t-13.5 80.5v474h-54v-481q0 -52 18 -95.5t50.5 -75t77 -49t98.5 -17.5t98.5 17.5t77 49t50.5 75t18 95.5zM477 790v77h-58v-77h58zM269 790v77h-58v-77h58z" />
    <glyph glyph-name="aacute" unicode="&#xe1;" horiz-adv-x="524" 
d="M431 0v330q0 76 -45.5 117t-141.5 41q-59 0 -99 -15.5t-71 -58.5l37 -32q23 33 52.5 47t80.5 14q74 0 105 -30t31 -88v-54h-156q-79 0 -123.5 -36.5t-44.5 -102.5q0 -27 9 -52t26 -42q23 -24 55.5 -34t86.5 -10q51 0 83.5 11.5t63.5 42.5v-48h51zM380 168q0 -67 -27 -92
q-26 -25 -56.5 -31t-63.5 -6q-66 0 -96 23t-30 71q0 97 123 97h150v-62zM367 737h-67l-97 -147h58z" />
    <glyph glyph-name="agrave" unicode="&#xe0;" horiz-adv-x="524" 
d="M431 0v330q0 76 -45.5 117t-141.5 41q-59 0 -99 -15.5t-71 -58.5l37 -32q23 33 52.5 47t80.5 14q74 0 105 -30t31 -88v-54h-156q-79 0 -123.5 -36.5t-44.5 -102.5q0 -27 9 -52t26 -42q23 -24 55.5 -34t86.5 -10q51 0 83.5 11.5t63.5 42.5v-48h51zM380 168q0 -67 -27 -92
q-26 -25 -56.5 -31t-63.5 -6q-66 0 -96 23t-30 71q0 97 123 97h150v-62zM297 590l-97 147h-67l106 -147h58z" />
    <glyph glyph-name="acircumflex" unicode="&#xe2;" horiz-adv-x="524" 
d="M431 0v330q0 76 -45.5 117t-141.5 41q-59 0 -99 -15.5t-71 -58.5l37 -32q23 33 52.5 47t80.5 14q74 0 105 -30t31 -88v-54h-156q-79 0 -123.5 -36.5t-44.5 -102.5q0 -27 9 -52t26 -42q23 -24 55.5 -34t86.5 -10q51 0 83.5 11.5t63.5 42.5v-48h51zM380 168q0 -67 -27 -92
q-26 -25 -56.5 -31t-63.5 -6q-66 0 -96 23t-30 71q0 97 123 97h150v-62zM400 590l-123 147h-54l-123 -147h57l93 109l93 -109h57z" />
    <glyph glyph-name="adieresis" unicode="&#xe4;" horiz-adv-x="524" 
d="M431 0v330q0 76 -45.5 117t-141.5 41q-59 0 -99 -15.5t-71 -58.5l37 -32q23 33 52.5 47t80.5 14q74 0 105 -30t31 -88v-54h-156q-79 0 -123.5 -36.5t-44.5 -102.5q0 -27 9 -52t26 -42q23 -24 55.5 -34t86.5 -10q51 0 83.5 11.5t63.5 42.5v-48h51zM380 168q0 -67 -27 -92
q-26 -25 -56.5 -31t-63.5 -6q-66 0 -96 23t-30 71q0 97 123 97h150v-62zM383 600v77h-58v-77h58zM175 600v77h-58v-77h58z" />
    <glyph glyph-name="atilde" unicode="&#xe3;" horiz-adv-x="524" 
d="M431 0v330q0 76 -45.5 117t-141.5 41q-59 0 -99 -15.5t-71 -58.5l37 -32q23 33 52.5 47t80.5 14q74 0 105 -30t31 -88v-54h-156q-79 0 -123.5 -36.5t-44.5 -102.5q0 -27 9 -52t26 -42q23 -24 55.5 -34t86.5 -10q51 0 83.5 11.5t63.5 42.5v-48h51zM380 168q0 -67 -27 -92
q-26 -25 -56.5 -31t-63.5 -6q-66 0 -96 23t-30 71q0 97 123 97h150v-62zM399 653l-30 29q-23 -23 -35.5 -28t-23.5 -5q-15 0 -27.5 5.5t-28.5 15.5q-18 11 -32.5 17.5t-36.5 6.5q-8 0 -16 -1t-18.5 -5.5t-24 -14.5t-30.5 -27l30 -29q23 23 35 28t24 5q15 0 28.5 -6.5
t27.5 -14.5q17 -10 32.5 -17t36.5 -7q7 0 15 1t19 5.5t24.5 14.5t30.5 27z" />
    <glyph glyph-name="aring" unicode="&#xe5;" horiz-adv-x="524" 
d="M431 0v330q0 76 -45.5 117t-141.5 41q-59 0 -99 -15.5t-71 -58.5l37 -32q23 33 52.5 47t80.5 14q74 0 105 -30t31 -88v-54h-156q-79 0 -123.5 -36.5t-44.5 -102.5q0 -27 9 -52t26 -42q23 -24 55.5 -34t86.5 -10q51 0 83.5 11.5t63.5 42.5v-48h51zM380 168q0 -67 -27 -92
q-26 -25 -56.5 -31t-63.5 -6q-66 0 -96 23t-30 71q0 97 123 97h150v-62zM364 677q0 24 -9 44.5t-24.5 36t-36 24.5t-44.5 9t-44.5 -9t-36 -24.5t-24.5 -36t-9 -44.5t9 -44.5t24.5 -36.5t36 -25t44.5 -9t44.5 9t36 25t24.5 36.5t9 44.5zM323 677q0 -30 -21.5 -51.5
t-51.5 -21.5t-51.5 21.5t-21.5 51.5t21.5 51t51.5 21t51.5 -21t21.5 -51z" />
    <glyph glyph-name="ccedilla" unicode="&#xe7;" horiz-adv-x="498" 
d="M440 68l-35 32q-15 -17 -29.5 -29t-29 -19t-30.5 -10t-35 -3q-41 0 -73.5 16t-54.5 48q-18 26 -25.5 57.5t-7.5 80.5t7.5 80.5t25.5 57.5q22 32 54.5 48t73.5 16q38 0 65.5 -13.5t58.5 -47.5l35 32q-20 21 -38 35.5t-36.5 23t-39 12t-45.5 3.5q-49 0 -88.5 -17t-67 -49
t-42 -78t-14.5 -103t14.5 -103t42 -78t67 -49t88.5 -17q25 0 45.5 3.5t39 12t36.5 23t38 35.5zM308 -70h-55l-72 -150h63z" />
    <glyph glyph-name="eacute" unicode="&#xe9;" horiz-adv-x="523" 
d="M455 230v23q0 111 -51 173t-142 62t-142 -65t-51 -182q0 -121 52.5 -184t152.5 -63q30 0 54 4.5t44.5 14t39 23.5t36.5 32l-38 30q-31 -31 -60.5 -44.5t-72.5 -13.5q-77 0 -117 49t-40 141h335zM404 271h-284q1 17 2 29.5t3 22t4.5 19t7.5 20.5q16 38 49.5 59.5
t75.5 21.5t75.5 -21.5t49.5 -59.5q4 -11 7 -20.5t5 -19t3 -22t2 -29.5zM381 737h-67l-97 -147h58z" />
    <glyph glyph-name="egrave" unicode="&#xe8;" horiz-adv-x="523" 
d="M455 230v23q0 111 -51 173t-142 62t-142 -65t-51 -182q0 -121 52.5 -184t152.5 -63q30 0 54 4.5t44.5 14t39 23.5t36.5 32l-38 30q-31 -31 -60.5 -44.5t-72.5 -13.5q-77 0 -117 49t-40 141h335zM404 271h-284q1 17 2 29.5t3 22t4.5 19t7.5 20.5q16 38 49.5 59.5
t75.5 21.5t75.5 -21.5t49.5 -59.5q4 -11 7 -20.5t5 -19t3 -22t2 -29.5zM311 590l-97 147h-67l106 -147h58z" />
    <glyph glyph-name="ecircumflex" unicode="&#xea;" horiz-adv-x="523" 
d="M455 230v23q0 111 -51 173t-142 62t-142 -65t-51 -182q0 -121 52.5 -184t152.5 -63q30 0 54 4.5t44.5 14t39 23.5t36.5 32l-38 30q-31 -31 -60.5 -44.5t-72.5 -13.5q-77 0 -117 49t-40 141h335zM404 271h-284q1 17 2 29.5t3 22t4.5 19t7.5 20.5q16 38 49.5 59.5
t75.5 21.5t75.5 -21.5t49.5 -59.5q4 -11 7 -20.5t5 -19t3 -22t2 -29.5zM414 590l-123 147h-54l-123 -147h57l93 109l93 -109h57z" />
    <glyph glyph-name="edieresis" unicode="&#xeb;" horiz-adv-x="523" 
d="M455 230v23q0 111 -51 173t-142 62t-142 -65t-51 -182q0 -121 52.5 -184t152.5 -63q30 0 54 4.5t44.5 14t39 23.5t36.5 32l-38 30q-31 -31 -60.5 -44.5t-72.5 -13.5q-77 0 -117 49t-40 141h335zM404 271h-284q1 17 2 29.5t3 22t4.5 19t7.5 20.5q16 38 49.5 59.5
t75.5 21.5t75.5 -21.5t49.5 -59.5q4 -11 7 -20.5t5 -19t3 -22t2 -29.5zM397 600v77h-58v-77h58zM189 600v77h-58v-77h58z" />
    <glyph glyph-name="iacute" unicode="&#xed;" horiz-adv-x="245" 
d="M148 0v482h-51v-482h51zM262 737h-67l-97 -147h58z" />
    <glyph glyph-name="igrave" unicode="&#xec;" horiz-adv-x="245" 
d="M148 0v482h-51v-482h51zM262 590l-97 147h-67l106 -147h58z" />
    <glyph glyph-name="icircumflex" unicode="&#xee;" horiz-adv-x="245" 
d="M148 0v482h-51v-482h51zM398 590l-123 147h-54l-123 -147h57l93 109l93 -109h57z" />
    <glyph glyph-name="idieresis" unicode="&#xef;" horiz-adv-x="245" 
d="M148 0v482h-51v-482h51zM364 600v77h-58v-77h58zM156 600v77h-58v-77h58z" />
    <glyph glyph-name="ntilde" unicode="&#xf1;" horiz-adv-x="559" 
d="M468 0v308q0 86 -50 134q-48 46 -128 46q-88 0 -142 -63v57h-51v-482h51v299q0 69 35.5 106.5t100.5 37.5t99 -37t34 -107v-299h51zM433 653l-30 29q-23 -23 -35.5 -28t-23.5 -5q-15 0 -27.5 5.5t-28.5 15.5q-18 11 -32.5 17.5t-36.5 6.5q-8 0 -16 -1t-18.5 -5.5
t-24 -14.5t-30.5 -27l30 -29q23 23 35 28t24 5q15 0 28.5 -6.5t27.5 -14.5q17 -10 32.5 -17t36.5 -7q7 0 15 1t19 5.5t24.5 14.5t30.5 27z" />
    <glyph glyph-name="oacute" unicode="&#xf3;" horiz-adv-x="526" 
d="M457 241q0 52 -11 104t-49 90q-26 26 -59.5 39.5t-74.5 13.5q-81 0 -134 -53q-38 -38 -49 -90t-11 -104t11 -104t49 -90q53 -53 134 -53q41 0 74.5 13.5t59.5 39.5q38 38 49 90t11 104zM406 241q0 -21 -1 -43t-5.5 -43.5t-13 -40.5t-23.5 -34q-20 -20 -45.5 -30.5
t-54.5 -10.5q-59 0 -100 41q-15 15 -23.5 34t-13 40.5t-5.5 43.5t-1 43t1 43t5.5 43.5t13 40.5t23.5 34q41 41 100 41q29 0 54.5 -10.5t45.5 -30.5q15 -15 23.5 -34t13 -40.5t5.5 -43.5t1 -43zM380 737h-67l-97 -147h58z" />
    <glyph glyph-name="ograve" unicode="&#xf2;" horiz-adv-x="526" 
d="M297 590l-97 147h-67l106 -147h58zM521 241q0 52 -11 104t-49 90q-26 26 -59.5 39.5t-74.5 13.5q-81 0 -134 -53q-38 -38 -49 -90t-11 -104t11 -104t49 -90q53 -53 134 -53q41 0 74.5 13.5t59.5 39.5q38 38 49 90t11 104zM470 241q0 -21 -1 -43t-5.5 -43.5t-13 -40.5
t-23.5 -34q-20 -20 -45.5 -30.5t-54.5 -10.5q-59 0 -100 41q-15 15 -23.5 34t-13 40.5t-5.5 43.5t-1 43t1 43t5.5 43.5t13 40.5t23.5 34q41 41 100 41q29 0 54.5 -10.5t45.5 -30.5q15 -15 23.5 -34t13 -40.5t5.5 -43.5t1 -43z" />
    <glyph glyph-name="ocircumflex" unicode="&#xf4;" horiz-adv-x="526" 
d="M457 241q0 52 -11 104t-49 90q-26 26 -59.5 39.5t-74.5 13.5q-81 0 -134 -53q-38 -38 -49 -90t-11 -104t11 -104t49 -90q53 -53 134 -53q41 0 74.5 13.5t59.5 39.5q38 38 49 90t11 104zM406 241q0 -21 -1 -43t-5.5 -43.5t-13 -40.5t-23.5 -34q-20 -20 -45.5 -30.5
t-54.5 -10.5q-59 0 -100 41q-15 15 -23.5 34t-13 40.5t-5.5 43.5t-1 43t1 43t5.5 43.5t13 40.5t23.5 34q41 41 100 41q29 0 54.5 -10.5t45.5 -30.5q15 -15 23.5 -34t13 -40.5t5.5 -43.5t1 -43zM413 590l-123 147h-54l-123 -147h57l93 109l93 -109h57z" />
    <glyph glyph-name="odieresis" unicode="&#xf6;" horiz-adv-x="526" 
d="M457 241q0 52 -11 104t-49 90q-26 26 -59.5 39.5t-74.5 13.5q-81 0 -134 -53q-38 -38 -49 -90t-11 -104t11 -104t49 -90q53 -53 134 -53q41 0 74.5 13.5t59.5 39.5q38 38 49 90t11 104zM406 241q0 -21 -1 -43t-5.5 -43.5t-13 -40.5t-23.5 -34q-20 -20 -45.5 -30.5
t-54.5 -10.5q-59 0 -100 41q-15 15 -23.5 34t-13 40.5t-5.5 43.5t-1 43t1 43t5.5 43.5t13 40.5t23.5 34q41 41 100 41q29 0 54.5 -10.5t45.5 -30.5q15 -15 23.5 -34t13 -40.5t5.5 -43.5t1 -43zM396 600v77h-58v-77h58zM188 600v77h-58v-77h58z" />
    <glyph glyph-name="otilde" unicode="&#xf5;" horiz-adv-x="526" 
d="M457 241q0 52 -11 104t-49 90q-26 26 -59.5 39.5t-74.5 13.5q-81 0 -134 -53q-38 -38 -49 -90t-11 -104t11 -104t49 -90q53 -53 134 -53q41 0 74.5 13.5t59.5 39.5q38 38 49 90t11 104zM406 241q0 -21 -1 -43t-5.5 -43.5t-13 -40.5t-23.5 -34q-20 -20 -45.5 -30.5
t-54.5 -10.5q-59 0 -100 41q-15 15 -23.5 34t-13 40.5t-5.5 43.5t-1 43t1 43t5.5 43.5t13 40.5t23.5 34q41 41 100 41q29 0 54.5 -10.5t45.5 -30.5q15 -15 23.5 -34t13 -40.5t5.5 -43.5t1 -43zM412 653l-30 29q-23 -23 -35.5 -28t-23.5 -5q-15 0 -27.5 5.5t-28.5 15.5
q-18 11 -32.5 17.5t-36.5 6.5q-8 0 -16 -1t-18.5 -5.5t-24 -14.5t-30.5 -27l30 -29q23 23 35 28t24 5q15 0 28.5 -6.5t27.5 -14.5q17 -10 32.5 -17t36.5 -7q7 0 15 1t19 5.5t24.5 14.5t30.5 27z" />
    <glyph glyph-name="uacute" unicode="&#xfa;" horiz-adv-x="559" 
d="M462 0v482h-51v-299q0 -69 -35.5 -106.5t-100.5 -37.5t-99 37t-34 107v299h-51v-308q0 -86 50 -134q48 -46 128 -46q88 0 142 63v-57h51zM393 737h-67l-97 -147h58z" />
    <glyph glyph-name="ugrave" unicode="&#xf9;" horiz-adv-x="559" 
d="M462 0v482h-51v-299q0 -69 -35.5 -106.5t-100.5 -37.5t-99 37t-34 107v299h-51v-308q0 -86 50 -134q48 -46 128 -46q88 0 142 63v-57h51zM323 590l-97 147h-67l106 -147h58z" />
    <glyph glyph-name="ucircumflex" unicode="&#xfb;" horiz-adv-x="559" 
d="M462 0v482h-51v-299q0 -69 -35.5 -106.5t-100.5 -37.5t-99 37t-34 107v299h-51v-308q0 -86 50 -134q48 -46 128 -46q88 0 142 63v-57h51zM426 590l-123 147h-54l-123 -147h57l93 109l93 -109h57z" />
    <glyph glyph-name="udieresis" unicode="&#xfc;" horiz-adv-x="559" 
d="M462 0v482h-51v-299q0 -69 -35.5 -106.5t-100.5 -37.5t-99 37t-34 107v299h-51v-308q0 -86 50 -134q48 -46 128 -46q88 0 142 63v-57h51zM409 600v77h-58v-77h58zM201 600v77h-58v-77h58z" />
    <glyph glyph-name="dagger" unicode="&#x2020;" horiz-adv-x="614" 
d="M534 457v45h-203v210h-51v-210h-200v-45h200v-457h51v457h203z" />
    <glyph glyph-name="degree" unicode="&#xb0;" horiz-adv-x="458" 
d="M386 562q0 33 -12.5 61.5t-33.5 49.5t-49.5 33.5t-61.5 12.5t-61.5 -12.5t-49.5 -33.5t-33.5 -49.5t-12.5 -61.5t12.5 -61.5t33.5 -49.5t49.5 -33.5t61.5 -12.5t61.5 12.5t49.5 33.5t33.5 49.5t12.5 61.5zM341 562q0 -25 -8.5 -46t-23.5 -36.5t-35.5 -24t-44.5 -8.5
t-44.5 8.5t-35.5 24t-23.5 36.5t-8.5 46t8.5 46t23 36.5t35 24t44.5 8.5t44.5 -9t36 -24.5t24 -36.5t8.5 -45z" />
    <glyph glyph-name="cent" unicode="&#xa2;" horiz-adv-x="498" 
d="M440 193l-35 32q-29 -32 -54 -45.5t-59 -15.5v404q34 -2 59 -15.5t54 -45.5l35 32q-18 20 -35 34t-34.5 22.5t-37 12.5t-41.5 5v99h-43v-101q-85 -11 -132.5 -75t-47.5 -170t47.5 -170t132.5 -75v-121h43v119q22 1 41.5 5t37 12.5t34.5 22.5t35 34zM249 167
q-61 11 -96 61q-18 26 -25.5 57.5t-7.5 80.5t7.5 80.5t25.5 57.5q35 50 96 61v-398z" />
    <glyph glyph-name="sterling" unicode="&#xa3;" horiz-adv-x="537" 
d="M482 0v48h-314v294h158v38h-158v111q0 86 40.5 132.5t117.5 46.5q47 0 73 -15t46 -35l37 37q-61 61 -156 61q-48 0 -87.5 -15.5t-67 -44t-42.5 -68t-15 -88.5v-122h-64v-38h64v-342h368z" />
    <glyph glyph-name="section" unicode="&#xa7;" horiz-adv-x="566" 
d="M469 247q0 32 -9 61t-26.5 53t-42.5 41t-56 26l-83 23q-39 11 -65 36t-26 71q0 57 33 85t89 28q55 0 87.5 -24t37.5 -80h53q-2 36 -17 64.5t-39 47.5t-55.5 29t-66.5 10q-36 0 -68 -11t-55.5 -31.5t-37.5 -50.5t-14 -67q0 -55 26 -88t73 -53q-22 -10 -42 -26t-35 -37.5
t-24 -48t-9 -58.5q0 -65 35 -114t99 -67l83 -23q43 -12 68.5 -42t25.5 -70q0 -58 -34 -88.5t-91 -30.5t-91 26.5t-39 80.5h-54q3 -37 18 -66t39.5 -48.5t57 -30t69.5 -10.5q39 0 72 12.5t57 34.5t37 53t13 67q0 54 -28 92t-75 54q22 10 42 26t35 37.5t24 48t9 58.5zM415 247
q0 -35 -9 -58.5t-26 -42.5q-38 -41 -97 -41t-97 41q-17 18 -26 42.5t-9 58.5q0 32 7.5 55.5t27.5 45.5q38 41 97 41q56 0 97 -41q22 -22 28.5 -47t6.5 -54z" />
    <glyph glyph-name="bullet" unicode="&#x2022;" horiz-adv-x="546" 
d="M436 334q0 34 -13 63.5t-35 51.5t-51.5 35t-63.5 13t-63.5 -13t-51.5 -35t-35 -51.5t-13 -63.5t13 -63.5t35 -51.5t51.5 -35t63.5 -13t63.5 13t51.5 35t35 51.5t13 63.5z" />
    <glyph glyph-name="paragraph" unicode="&#xb6;" horiz-adv-x="579" 
d="M469 -230v942h-213q-51 0 -90.5 -16t-66.5 -42.5t-40.5 -60.5t-13.5 -71q0 -35 13 -69t38.5 -61t62.5 -43.5t85 -16.5v-562h51v894h123v-894h51z" />
    <glyph glyph-name="germandbls" unicode="&#xdf;" horiz-adv-x="550" 
d="M473 134v177q0 24 -2.5 42.5t-10 33t-20 26t-31.5 22.5q63 42 63 122q0 42 -14.5 72.5t-39.5 50.5t-58.5 29.5t-70.5 9.5q-91 0 -141.5 -51.5t-50.5 -142.5v-525h51v525q0 66 31.5 107.5t103.5 41.5q71 0 104 -32q17 -15 26 -37.5t9 -47.5q0 -46 -26.5 -74t-71.5 -28h-39
v-45h49q42 0 65 -23q13 -12 18 -28t5 -40v-179q0 -51 -28 -73q-14 -11 -27.5 -16.5t-37.5 -5.5h-44v-45h54q32 0 53.5 8t41.5 26q18 17 28.5 42.5t10.5 57.5z" />
    <glyph glyph-name="registered" unicode="&#xae;" horiz-adv-x="894" 
d="M809 356q0 75 -28.5 141t-77.5 115t-115 77.5t-141 28.5t-141 -28.5t-115 -77.5t-77.5 -115t-28.5 -141t28.5 -141t77.5 -115t115 -77.5t141 -28.5t141 28.5t115 77.5t77.5 115t28.5 141zM762 356q0 -65 -25 -123t-67.5 -101.5t-100 -69t-122.5 -25.5t-122.5 25.5
t-100 69t-67.5 101.5t-25 123t25 123t67.5 101.5t100 69t122.5 25.5t122.5 -25.5t100 -69t67.5 -101.5t25 -123zM595 156l-101 171q40 11 65.5 39t25.5 73q0 25 -10 47t-27 37.5t-39.5 24.5t-47.5 9h-128v-401h45v167h66l99 -167h52zM540 439q0 -33 -24 -54.5t-60 -21.5h-78
v153h78q36 0 60 -22t24 -55z" />
    <glyph glyph-name="copyright" unicode="&#xa9;" horiz-adv-x="894" 
d="M809 356q0 75 -28.5 141t-77.5 115t-115 77.5t-141 28.5t-141 -28.5t-115 -77.5t-77.5 -115t-28.5 -141t28.5 -141t77.5 -115t115 -77.5t141 -28.5t141 28.5t115 77.5t77.5 115t28.5 141zM761 356q0 -65 -25 -122.5t-67.5 -101t-100 -69t-121.5 -25.5q-65 0 -122 25.5
t-99.5 69t-67.5 101t-25 122.5q0 64 25 122t67.5 101.5t99.5 69t122 25.5q64 0 121.5 -25.5t100 -69t67.5 -101.5t25 -122zM582 202l-30 30q-27 -24 -49 -32.5t-52 -8.5q-38 0 -63.5 13.5t-40.5 36t-21.5 52.5t-6.5 63t6.5 63t21.5 53t40.5 36.5t63.5 13.5q30 0 52 -9
t49 -33l30 30q-16 14 -30.5 24t-30 16.5t-32.5 9.5t-38 3q-46 0 -79.5 -16.5t-55 -45t-32 -66t-10.5 -79.5t10.5 -79.5t32 -65.5t55 -44.5t79.5 -16.5q42 0 72 13t59 39z" />
    <glyph glyph-name="trademark" unicode="&#x2122;" horiz-adv-x="809" 
d="M753 285v427h-44l-133 -270l-133 270h-44v-427h44v328l110 -218h46l110 218v-328h44zM320 671v41h-288v-41h122v-386h44v386h122z" />
    <glyph glyph-name="acute" unicode="&#xb4;" horiz-adv-x="500" 
d="M367 737h-67l-97 -147h58z" />
    <glyph glyph-name="dieresis" unicode="&#xa8;" horiz-adv-x="500" 
d="M383 600v77h-58v-77h58zM175 600v77h-58v-77h58z" />
    <glyph glyph-name="notequal" unicode="&#x2260;" 
d="M461 163v47h-224l106 106h118v47h-71l71 71l-33 33l-104 -104h-271v-47h224l-106 -106h-118v-47h71l-71 -71l33 -33l104 104h271z" />
    <glyph glyph-name="AE" unicode="&#xc6;" horiz-adv-x="901" 
d="M845 0v48h-378v284h322v48h-322v284h378v48h-458l-377 -712h59l90 173h255v-173h431zM414 221h-232l232 443v-443z" />
    <glyph glyph-name="Oslash" unicode="&#xd8;" horiz-adv-x="652" 
d="M570 356q0 60 -1 103.5t-7.5 76.5t-20 59t-37.5 50l-9 9l49 102h-53l-35 -73q-59 35 -130 35q-51 0 -97 -19t-81 -54q-24 -24 -37.5 -50t-20 -59t-7.5 -76.5t-1 -103.5t1 -104t7.5 -77t20 -58.5t37.5 -49.5l9 -9l-49 -102h53l35 73q59 -35 130 -35q51 0 97 19t81 54
q24 24 37.5 49.5t20 58.5t7.5 77t1 104zM516 356q0 -57 -1.5 -97.5t-7 -70t-16.5 -51t-30 -40.5q-27 -27 -62 -41t-73 -14q-29 0 -57 8t-51 25l253 529q16 -18 25 -39.5t13.5 -50t5.5 -67t1 -91.5zM434 637l-253 -529q-16 18 -25 39.5t-13.5 50t-5.5 67t-1 91.5
q0 57 1.5 97.5t7 70t16.5 51t30 40.5q27 27 62 41t73 14q61 0 108 -33z" />
    <glyph glyph-name="infinity" unicode="&#x221e;" horiz-adv-x="792" 
d="M720 260q0 32 -11 59.5t-30.5 47.5t-46.5 31.5t-59 11.5q-26 0 -48.5 -6.5t-43 -20t-41.5 -34t-44 -49.5q-47 58 -87 84t-89 26q-32 0 -59.5 -11.5t-47 -31.5t-30.5 -47.5t-11 -59.5t11 -59t30.5 -47t47 -31.5t59.5 -11.5q25 0 47 6t43 19.5t42 34t44 49.5
q23 -29 44 -49.5t42 -33.5t43 -19t48 -6q32 0 59 11t46.5 31t30.5 47t11 59zM672 260q0 -46 -28.5 -74t-74.5 -28q-20 0 -37.5 7t-34.5 20.5t-34.5 32t-36.5 42.5q19 24 36.5 43t34.5 32.5t34.5 20.5t37.5 7q46 0 74.5 -28.5t28.5 -74.5zM366 260q-39 -47 -71 -74.5
t-72 -27.5q-46 0 -74.5 28t-28.5 74t28.5 75.5t74.5 29.5q40 0 72 -29t71 -76z" />
    <glyph glyph-name="plusminus" unicode="&#xb1;" 
d="M461 270v47h-180v181h-47v-181h-181v-47h181v-182h47v182h180zM461 0v47h-408v-47h408z" />
    <glyph glyph-name="lessequal" unicode="&#x2264;" horiz-adv-x="1027" 
d="M854 -42l-579 579h536l-49 49h-571v-572l48 -48v536l580 -579z" />
    <glyph glyph-name="greaterequal" unicode="&#x2265;" horiz-adv-x="1027" 
d="M836 14v572h-571l-49 -49h536l-579 -579l35 -35l580 579v-536z" />
    <glyph glyph-name="yen" unicode="&#xa5;" horiz-adv-x="493" 
d="M483 712h-56l-179 -361l-181 361h-57l164 -326h-109v-38h128l27 -53v-53h-155v-38h155v-204h54v204h154v38h-154v53l27 53h127v38h-108z" />
    <glyph glyph-name="mu" unicode="&#xb5;" horiz-adv-x="556" 
d="M459 0v482h-51v-299q0 -69 -35.5 -106.5t-100.5 -37.5t-99 37t-34 107v299h-51v-712h51v269q48 -45 127 -45q88 0 142 63v-57h51z" />
    <glyph glyph-name="mu" unicode="&#x3bc;" horiz-adv-x="556" 
d="M459 0v482h-51v-299q0 -69 -35.5 -106.5t-100.5 -37.5t-99 37t-34 107v299h-51v-712h51v269q48 -45 127 -45q88 0 142 63v-57h51z" />
    <glyph glyph-name="partialdiff" unicode="&#x2202;" horiz-adv-x="540" 
d="M443 241v268q0 46 -13 84.5t-38 66.5t-62 43t-84 15q-27 0 -48 -4t-39 -12t-35 -20t-36 -29l33 -33q14 13 27 22.5t27 16.5t31 10.5t40 3.5q38 0 65.5 -12.5t45.5 -35t26.5 -53t8.5 -66.5v-86q-32 42 -67 55t-76 13q-39 0 -70.5 -15t-51.5 -35q-37 -37 -47.5 -88.5
t-10.5 -108.5q0 -26 2 -52.5t8.5 -51.5t18 -48t29.5 -42q51 -53 129 -53t129 53q18 19 29.5 42t18 48t8.5 51.5t2 52.5zM392 241q0 -21 -1 -43t-5 -43.5t-12.5 -40.5t-22.5 -34q-39 -41 -95 -41t-95 41q-14 15 -22.5 34t-12.5 40.5t-5 43.5t-1 43t1 43t5 43.5t12.5 40.5
t22.5 34q39 41 95 41t95 -41q14 -15 22.5 -34t12.5 -40.5t5 -43.5t1 -43z" />
    <glyph glyph-name="summation" unicode="&#x2211;" horiz-adv-x="551" 
d="M495 -230v48h-371l195 437v48l-195 409h371v48h-432v-48l207 -433l-207 -461v-48h432z" />
    <glyph glyph-name="product" unicode="&#x220f;" horiz-adv-x="699" 
d="M589 -230v990h-479v-990h54v942h371v-942h54z" />
    <glyph glyph-name="pi" unicode="&#x3c0;" horiz-adv-x="591" 
d="M481 0v482h-371v-482h48v437h275v-437h48z" />
    <glyph glyph-name="integral" unicode="&#x222b;" horiz-adv-x="329" 
d="M299 667v45h-44q-57 0 -86.5 -35.5t-29.5 -90.5v-691q0 -38 -18 -59t-56 -21h-35v-45h44q57 0 86.5 35.5t29.5 90.5v691q0 38 18 59t56 21h35z" />
    <glyph glyph-name="ordfeminine" unicode="&#xaa;" horiz-adv-x="447" 
d="M356 327v262q0 60 -36.5 93t-111.5 33q-46 0 -78 -12.5t-58 -47.5l32 -27q18 27 41 37.5t63 10.5q57 0 81 -23t24 -68v-42h-121q-63 0 -98 -29t-35 -82q0 -22 7 -41.5t21 -33.5q19 -20 44.5 -27.5t67.5 -7.5q39 0 64.5 9t49.5 32v-36h43zM313 461q0 -53 -20 -72
t-44 -23.5t-50 -4.5q-51 0 -74 17.5t-23 54.5q0 75 95 75h116v-47z" />
    <glyph glyph-name="ordmasculine" unicode="&#xba;" horiz-adv-x="452" 
d="M380 519q0 42 -8.5 82.5t-39.5 71.5q-42 42 -106 42t-106 -42q-31 -31 -39.5 -71.5t-8.5 -82.5t8.5 -82.5t39.5 -71.5q42 -42 106 -42t106 42q31 31 39.5 71.5t8.5 82.5zM337 519q0 -32 -5 -67t-28 -58q-15 -15 -35 -23.5t-43 -8.5t-43 8.5t-35 23.5q-23 23 -28 58t-5 67
t5 67t28 58q32 32 78 32t78 -32q23 -23 28 -58t5 -67z" />
    <glyph glyph-name="ae" unicode="&#xe6;" horiz-adv-x="834" 
d="M766 230v23q0 111 -51 173t-142 62q-52 0 -91.5 -21.5t-64.5 -63.5q-37 85 -173 85q-59 0 -99 -15.5t-71 -58.5l37 -32q23 33 52.5 47t80.5 14q74 0 105 -30t31 -88v-54h-156q-79 0 -123.5 -36.5t-44.5 -102.5q0 -27 9 -52t26 -42q23 -24 55.5 -34t86.5 -10
q67 0 108 20.5t71 69.5q50 -90 172 -90q60 0 99 18.5t76 55.5l-38 30q-31 -31 -60.5 -44.5t-72.5 -13.5q-77 0 -117 49t-40 141h335zM715 271h-284q1 17 2 29.5t3 22t4.5 19t7.5 20.5q16 38 49.5 59.5t75.5 21.5t75.5 -21.5t49.5 -59.5q4 -11 7 -20.5t5 -19t3 -22t2 -29.5z
M380 168q0 -67 -27 -92q-26 -25 -56.5 -31t-63.5 -6q-66 0 -96 23t-30 71q0 97 123 97h150v-62z" />
    <glyph glyph-name="oslash" unicode="&#xf8;" horiz-adv-x="526" 
d="M457 241q0 51 -10.5 102t-46.5 89l56 94h-48l-40 -68q-45 30 -105 30q-81 0 -134 -53q-38 -38 -49 -90t-11 -104q0 -51 10.5 -102t46.5 -89l-56 -94h48l40 67q46 -29 105 -29q41 0 74.5 13.5t59.5 39.5q38 38 49 90t11 104zM406 241q0 -21 -1 -43t-5.5 -43.5t-13 -40.5
t-23.5 -34q-20 -20 -45.5 -30.5t-54.5 -10.5q-45 0 -81 25l192 325q23 -31 27.5 -70.5t4.5 -77.5zM344 418l-192 -325q-23 31 -27.5 70.5t-4.5 77.5q0 21 1 43t5.5 43.5t13 40.5t23.5 34q41 41 100 41q45 0 81 -25z" />
    <glyph glyph-name="questiondown" unicode="&#xbf;" horiz-adv-x="488" 
d="M256 415v67h-67v-67h67zM408 -60h-51q0 -26 -9 -50t-25.5 -42t-40.5 -28.5t-53 -10.5q-27 0 -50.5 10t-41 27.5t-27 41.5t-9.5 52q0 29 9.5 49t24.5 43l84 124q15 22 22 41.5t7 48.5v45h-51v-47q0 -12 -4 -29t-14 -31l-85 -125q-20 -29 -32 -56.5t-12 -62.5
q0 -38 13.5 -70t37.5 -55.5t57 -37t71 -13.5q40 0 73 14t56.5 38t36.5 56t13 68z" />
    <glyph glyph-name="exclamdown" unicode="&#xa1;" horiz-adv-x="304" 
d="M171 415v67h-67v-67h67zM165 -230l-3 520h-49l-3 -520h55z" />
    <glyph glyph-name="logicalnot" unicode="&#xac;" 
d="M461 107v180h-408v-47h361v-133h47z" />
    <glyph glyph-name="radical" unicode="&#x221a;" horiz-adv-x="550" 
d="M520 664v48h-129l-199 -617l-126 387h-56l159 -482h46l217 664h88z" />
    <glyph glyph-name="florin" unicode="&#x192;" horiz-adv-x="394" 
d="M364 667v45h-44q-57 0 -92.5 -35.5t-45.5 -90.5l-36 -206h-116v-38h109l-101 -572h51l101 572h116v38h-109l36 207q7 38 28.5 59t59.5 21h43z" />
    <glyph glyph-name="approxequal" unicode="&#x2248;" 
d="M461 357l-31 31q-15 -15 -26 -24t-20 -13.5t-18 -6t-19 -1.5q-20 0 -37.5 7t-38.5 16q-27 11 -52 21t-50 10q-15 0 -27 -2t-25 -8.5t-28.5 -19t-35.5 -32.5l31 -31q15 15 26 24t20 13.5t17.5 6t19.5 1.5q20 0 37.5 -7t38.5 -16q27 -11 52 -21t50 -10q15 0 27 2t25 8.5
t28.5 19t35.5 32.5zM461 197l-31 31q-15 -15 -26 -24t-20 -13.5t-18 -6t-19 -1.5q-20 0 -37.5 7t-38.5 16q-27 11 -52 21t-50 10q-15 0 -27 -2t-25 -8.5t-28.5 -19t-35.5 -32.5l31 -31q15 15 26 24t20 13.5t17.5 6t19.5 1.5q20 0 37.5 -7t38.5 -16q27 -11 52 -21t50 -10
q15 0 27 2t25 8.5t28.5 19t35.5 32.5z" />
    <glyph glyph-name="guillemotleft" unicode="&#xab;" horiz-adv-x="527" 
d="M445 69v66l-130 130l130 130v66l-196 -196zM238 69v66l-130 130l130 130v66l-196 -196z" />
    <glyph glyph-name="guillemotright" unicode="&#xbb;" horiz-adv-x="527" 
d="M485 265l-196 196v-66l130 -130l-130 -130v-66zM278 265l-196 196v-66l130 -130l-130 -130v-66z" />
    <glyph glyph-name="ellipsis" unicode="&#x2026;" horiz-adv-x="724" 
d="M629 0v74h-74v-74h74zM399 0v74h-74v-74h74zM169 0v74h-74v-74h74z" />
    <glyph glyph-name="nonbreakingspace" unicode="&#xa0;" horiz-adv-x="255" 
 />
    <glyph glyph-name="Agrave" unicode="&#xc0;" horiz-adv-x="602" 
d="M587 0l-262 712h-48l-262 -712h58l62 173h332l62 -173h58zM450 221h-298l149 419zM348 780l-97 147h-67l106 -147h58z" />
    <glyph glyph-name="Atilde" unicode="&#xc3;" horiz-adv-x="602" 
d="M587 0l-262 712h-48l-262 -712h58l62 173h332l62 -173h58zM450 221h-298l149 419zM450 843l-30 29q-23 -23 -35.5 -28t-23.5 -5q-15 0 -27.5 5.5t-28.5 15.5q-18 11 -32.5 17.5t-36.5 6.5q-8 0 -16 -1t-18.5 -5.5t-24 -14.5t-30.5 -27l30 -29q23 23 35 28t24 5
q15 0 28.5 -6.5t27.5 -14.5q17 -10 32.5 -17t36.5 -7q7 0 15 1t19 5.5t24.5 14.5t30.5 27z" />
    <glyph glyph-name="Otilde" unicode="&#xd5;" horiz-adv-x="652" 
d="M570 356q0 60 -1 103.5t-7.5 76.5t-20 59t-37.5 50q-35 35 -81 54t-97 19t-97 -19t-81 -54q-24 -24 -37.5 -50t-20 -59t-7.5 -76.5t-1 -103.5t1 -104t7.5 -77t20 -58.5t37.5 -49.5q35 -35 81 -54t97 -19t97 19t81 54q24 24 37.5 49.5t20 58.5t7.5 77t1 104zM516 356
q0 -57 -1.5 -97.5t-7 -70t-16.5 -51t-30 -40.5q-27 -27 -62 -41t-73 -14t-73 14t-62 41q-19 19 -30 40.5t-16.5 51t-7 70t-1.5 97.5t1.5 97.5t7 70t16.5 51t30 40.5q27 27 62 41t73 14t73 -14t62 -41q19 -19 30 -40.5t16.5 -51t7 -70t1.5 -97.5zM475 843l-30 29
q-23 -23 -35.5 -28t-23.5 -5q-15 0 -27.5 5.5t-28.5 15.5q-18 11 -32.5 17.5t-36.5 6.5q-8 0 -16 -1t-18.5 -5.5t-24 -14.5t-30.5 -27l30 -29q23 23 35 28t24 5q15 0 28.5 -6.5t27.5 -14.5q17 -10 32.5 -17t36.5 -7q7 0 15 1t19 5.5t24.5 14.5t30.5 27z" />
    <glyph glyph-name="OE" unicode="&#x152;" horiz-adv-x="997" 
d="M941 0v47h-372q0 73 0.5 145.5t0.5 145.5h313v42h-313q0 72 -0.5 142.5t-0.5 142.5h369v47h-422v-85q-73 91 -190 91q-51 0 -97 -19t-81 -54q-24 -24 -37.5 -50t-20 -59t-7.5 -76.5t-1 -103.5t1 -104t7.5 -77t20 -58.5t37.5 -49.5q35 -35 81 -54t97 -19q55 0 104.5 23
t85.5 68v-85h425zM516 356q0 -57 -1.5 -97.5t-7 -70t-16.5 -51t-30 -40.5q-27 -27 -62 -41t-73 -14t-73 14t-62 41q-19 19 -30 40.5t-16.5 51t-7 70t-1.5 97.5t1.5 97.5t7 70t16.5 51t30 40.5q27 27 62 41t73 14t73 -14t62 -41q19 -19 30 -40.5t16.5 -51t7 -70t1.5 -97.5z
" />
    <glyph glyph-name="oe" unicode="&#x153;" horiz-adv-x="860" 
d="M792 230v23q0 111 -51 173t-142 62q-58 0 -100.5 -27t-65.5 -78q-23 51 -68 78t-102 27q-81 0 -134 -53q-38 -38 -49 -90t-11 -104t11 -104t49 -90q53 -53 134 -53q56 0 101.5 27t68.5 78q49 -105 178 -105q30 0 54 4.5t44.5 14t39 23.5t36.5 32l-38 30
q-31 -31 -60.5 -44.5t-72.5 -13.5q-77 0 -117 49t-40 141h335zM741 271h-284q1 17 2 29.5t3 22t4.5 19t7.5 20.5q16 38 49.5 59.5t75.5 21.5t75.5 -21.5t49.5 -59.5q4 -11 7 -20.5t5 -19t3 -22t2 -29.5zM406 241q0 -21 -1 -43t-5.5 -43.5t-13 -40.5t-23.5 -34
q-20 -20 -45.5 -30.5t-54.5 -10.5q-59 0 -100 41q-15 15 -23.5 34t-13 40.5t-5.5 43.5t-1 43t1 43t5.5 43.5t13 40.5t23.5 34q41 41 100 41q29 0 54.5 -10.5t45.5 -30.5q15 -15 23.5 -34t13 -40.5t5.5 -43.5t1 -43z" />
    <glyph glyph-name="endash" unicode="&#x2013;" 
d="M461 240v47h-408v-47h408z" />
    <glyph glyph-name="emdash" unicode="&#x2014;" horiz-adv-x="873" 
d="M791 240v47h-709v-47h709z" />
    <glyph glyph-name="quotedblleft" unicode="&#x201c;" horiz-adv-x="416" 
d="M321 642v140l-70 -70v-70h70zM165 642v140l-70 -70v-70h70z" />
    <glyph glyph-name="quotedblright" unicode="&#x201d;" horiz-adv-x="416" 
d="M321 642v70h-70v-140zM165 642v70h-70v-140z" />
    <glyph glyph-name="quoteleft" unicode="&#x2018;" horiz-adv-x="260" 
d="M165 642v140l-70 -70v-70h70z" />
    <glyph glyph-name="quoteright" unicode="&#x2019;" horiz-adv-x="260" 
d="M165 642v70h-70v-140z" />
    <glyph glyph-name="divide" unicode="&#xf7;" 
d="M292 397v70h-70v-70h70zM461 240v47h-408v-47h408zM292 60v70h-70v-70h70z" />
    <glyph glyph-name="lozenge" unicode="&#x25ca;" horiz-adv-x="654" 
d="M582 356l-255 363l-255 -363l255 -363zM525 356l-198 -287l-198 287l198 285z" />
    <glyph glyph-name="ydieresis" unicode="&#xff;" horiz-adv-x="430" 
d="M416 482h-56l-145 -422l-145 422h-56l176 -482l-39 -107q-7 -18 -13.5 -30.5t-16.5 -20.5t-23.5 -11.5t-34.5 -3.5h-19v-45h24q24 0 48.5 7t42.5 24q19 17 33 56zM349 600v77h-58v-77h58zM141 600v77h-58v-77h58z" />
    <glyph glyph-name="Ydieresis" unicode="&#x178;" horiz-adv-x="494" 
d="M484 712h-58l-177 -360l-181 360h-58l210 -417v-295h54v295zM381 790v77h-58v-77h58zM173 790v77h-58v-77h58z" />
    <glyph glyph-name="currency" unicode="&#xa4;" horiz-adv-x="657" 
d="M572 54l-74 74q23 28 35 63t12 74t-12 74.5t-35 63.5l74 73l-32 32l-75 -73q-28 23 -63 35t-74 12t-74 -12t-63 -35l-74 73l-32 -32l74 -73q-23 -28 -35.5 -63.5t-12.5 -74.5t12.5 -74t35.5 -63l-74 -74l32 -32l74 74q28 -23 63 -35.5t74 -12.5t74 12.5t63 35.5l75 -74z
M497 265q0 -35 -13 -66t-36 -54t-54 -36t-66 -13t-66 13t-54 36t-36 54t-13 66t13 66t36 54t54 36t66 13t66 -13t54 -36t36 -54t13 -66z" />
    <glyph glyph-name="guilsinglleft" unicode="&#x2039;" horiz-adv-x="320" 
d="M238 69v66l-130 130l130 130v66l-196 -196z" />
    <glyph glyph-name="guilsinglright" unicode="&#x203a;" horiz-adv-x="320" 
d="M278 265l-196 196v-66l130 -130l-130 -130v-66z" />
    <glyph glyph-name="fi" unicode="&#xfb01;" horiz-adv-x="547" 
d="M456 649v63h-63v-63h63zM450 0v482h-51v-482h51zM272 444v38h-109v105q0 38 18 59t56 21h35v45h-44q-57 0 -86.5 -35.5t-29.5 -90.5v-104h-66v-38h66v-444h51v444h109z" />
    <glyph glyph-name="fl" unicode="&#xfb02;" horiz-adv-x="586" 
d="M554 0v45h-35q-43 0 -58.5 20t-15.5 61v586h-51v-587q0 -57 28.5 -91t87.5 -34h44zM272 444v38h-109v105q0 38 18 59t56 21h35v45h-44q-57 0 -86.5 -35.5t-29.5 -90.5v-104h-66v-38h66v-444h51v444h109z" />
    <glyph glyph-name="daggerdbl" unicode="&#x2021;" horiz-adv-x="614" 
d="M534 -20v45h-203v432h203v45h-203v210h-51v-210h-200v-45h200v-432h-200v-45h200v-210h51v210h203z" />
    <glyph glyph-name="periodcentered" unicode="&#xb7;" horiz-adv-x="264" 
d="M169 227v74h-74v-74h74z" />
    <glyph glyph-name="quotesinglbase" unicode="&#x201a;" horiz-adv-x="260" 
d="M165 0v70h-70v-140z" />
    <glyph glyph-name="quotedblbase" unicode="&#x201e;" horiz-adv-x="416" 
d="M321 0v70h-70v-140zM165 0v70h-70v-140z" />
    <glyph glyph-name="perthousand" unicode="&#x2030;" horiz-adv-x="1168" 
d="M1099 127v107q0 60 -36.5 97t-94.5 37q-59 0 -95.5 -37t-36.5 -97v-107q0 -60 36.5 -97t95.5 -37q58 0 94.5 37t36.5 97zM759 127v107q0 60 -36.5 97t-94.5 37q-59 0 -95.5 -37t-36.5 -97v-107q0 -60 36.5 -97t95.5 -37q58 0 94.5 37t36.5 97zM603 712h-45l-332 -712h45z
M332 478v107q0 60 -36.5 97t-94.5 37q-59 0 -95.5 -37t-36.5 -97v-107q0 -59 36.5 -96t95.5 -37q58 0 94.5 37t36.5 96zM1055 128q0 -45 -20 -71t-67 -26q-48 0 -68 26.5t-20 71.5v103q0 45 20 71.5t68 26.5q47 0 67 -26.5t20 -71.5v-104zM715 129q0 -45 -20 -71.5
t-67 -26.5t-67.5 26.5t-20.5 71.5v103q0 45 20.5 71.5t67.5 26.5t67 -26.5t20 -71.5v-103zM288 480q0 -45 -20.5 -71t-66.5 -26q-47 0 -67.5 26t-20.5 71v103q0 45 20.5 71.5t67.5 26.5t67 -26.5t20 -71.5v-103z" />
    <glyph glyph-name="Acircumflex" unicode="&#xc2;" horiz-adv-x="602" 
d="M587 0l-262 712h-48l-262 -712h58l62 173h332l62 -173h58zM450 221h-298l149 419zM451 780l-123 147h-54l-123 -147h57l93 109l93 -109h57z" />
    <glyph glyph-name="Ecircumflex" unicode="&#xca;" horiz-adv-x="598" 
d="M542 0v48h-378v287h322v48h-322v281h378v48h-432v-712h432zM464 780l-123 147h-54l-123 -147h57l93 109l93 -109h57z" />
    <glyph glyph-name="Aacute" unicode="&#xc1;" horiz-adv-x="602" 
d="M587 0l-262 712h-48l-262 -712h58l62 173h332l62 -173h58zM450 221h-298l149 419zM418 927h-67l-97 -147h58z" />
    <glyph glyph-name="Edieresis" unicode="&#xcb;" horiz-adv-x="598" 
d="M542 0v48h-378v287h322v48h-322v281h378v48h-432v-712h432zM447 790v77h-58v-77h58zM239 790v77h-58v-77h58z" />
    <glyph glyph-name="Egrave" unicode="&#xc8;" horiz-adv-x="598" 
d="M542 0v48h-378v287h322v48h-322v281h378v48h-432v-712h432zM361 780l-97 147h-67l106 -147h58z" />
    <glyph glyph-name="Iacute" unicode="&#xcd;" horiz-adv-x="274" 
d="M164 0v712h-54v-712h54zM275 927h-67l-97 -147h58z" />
    <glyph glyph-name="Icircumflex" unicode="&#xce;" horiz-adv-x="274" 
d="M164 0v712h-54v-712h54zM410 780l-123 147h-54l-123 -147h57l93 109l93 -109h57z" />
    <glyph glyph-name="Idieresis" unicode="&#xcf;" horiz-adv-x="274" 
d="M164 0v712h-54v-712h54zM377 790v77h-58v-77h58zM169 790v77h-58v-77h58z" />
    <glyph glyph-name="Igrave" unicode="&#xcc;" horiz-adv-x="274" 
d="M164 0v712h-54v-712h54zM275 780l-97 147h-67l106 -147h58z" />
    <glyph glyph-name="Oacute" unicode="&#xd3;" horiz-adv-x="652" 
d="M570 356q0 60 -1 103.5t-7.5 76.5t-20 59t-37.5 50q-35 35 -81 54t-97 19t-97 -19t-81 -54q-24 -24 -37.5 -50t-20 -59t-7.5 -76.5t-1 -103.5t1 -104t7.5 -77t20 -58.5t37.5 -49.5q35 -35 81 -54t97 -19t97 19t81 54q24 24 37.5 49.5t20 58.5t7.5 77t1 104zM516 356
q0 -57 -1.5 -97.5t-7 -70t-16.5 -51t-30 -40.5q-27 -27 -62 -41t-73 -14t-73 14t-62 41q-19 19 -30 40.5t-16.5 51t-7 70t-1.5 97.5t1.5 97.5t7 70t16.5 51t30 40.5q27 27 62 41t73 14t73 -14t62 -41q19 -19 30 -40.5t16.5 -51t7 -70t1.5 -97.5zM443 927h-67l-97 -147h58z
" />
    <glyph glyph-name="Ocircumflex" unicode="&#xd4;" horiz-adv-x="652" 
d="M570 356q0 60 -1 103.5t-7.5 76.5t-20 59t-37.5 50q-35 35 -81 54t-97 19t-97 -19t-81 -54q-24 -24 -37.5 -50t-20 -59t-7.5 -76.5t-1 -103.5t1 -104t7.5 -77t20 -58.5t37.5 -49.5q35 -35 81 -54t97 -19t97 19t81 54q24 24 37.5 49.5t20 58.5t7.5 77t1 104zM516 356
q0 -57 -1.5 -97.5t-7 -70t-16.5 -51t-30 -40.5q-27 -27 -62 -41t-73 -14t-73 14t-62 41q-19 19 -30 40.5t-16.5 51t-7 70t-1.5 97.5t1.5 97.5t7 70t16.5 51t30 40.5q27 27 62 41t73 14t73 -14t62 -41q19 -19 30 -40.5t16.5 -51t7 -70t1.5 -97.5zM476 780l-123 147h-54
l-123 -147h57l93 109l93 -109h57z" />
    <glyph glyph-name="Ograve" unicode="&#xd2;" horiz-adv-x="652" 
d="M570 356q0 60 -1 103.5t-7.5 76.5t-20 59t-37.5 50q-35 35 -81 54t-97 19t-97 -19t-81 -54q-24 -24 -37.5 -50t-20 -59t-7.5 -76.5t-1 -103.5t1 -104t7.5 -77t20 -58.5t37.5 -49.5q35 -35 81 -54t97 -19t97 19t81 54q24 24 37.5 49.5t20 58.5t7.5 77t1 104zM516 356
q0 -57 -1.5 -97.5t-7 -70t-16.5 -51t-30 -40.5q-27 -27 -62 -41t-73 -14t-73 14t-62 41q-19 19 -30 40.5t-16.5 51t-7 70t-1.5 97.5t1.5 97.5t7 70t16.5 51t30 40.5q27 27 62 41t73 14t73 -14t62 -41q19 -19 30 -40.5t16.5 -51t7 -70t1.5 -97.5zM373 780l-97 147h-67
l106 -147h58z" />
    <glyph glyph-name="Uacute" unicode="&#xda;" horiz-adv-x="687" 
d="M588 231v481h-54v-474q0 -44 -13.5 -80.5t-38.5 -62t-60 -39.5t-78 -14t-78 14t-60 39.5t-38.5 62t-13.5 80.5v474h-54v-481q0 -52 18 -95.5t50.5 -75t77 -49t98.5 -17.5t98.5 17.5t77 49t50.5 75t18 95.5zM461 927h-67l-97 -147h58z" />
    <glyph glyph-name="Ucircumflex" unicode="&#xdb;" horiz-adv-x="687" 
d="M588 231v481h-54v-474q0 -44 -13.5 -80.5t-38.5 -62t-60 -39.5t-78 -14t-78 14t-60 39.5t-38.5 62t-13.5 80.5v474h-54v-481q0 -52 18 -95.5t50.5 -75t77 -49t98.5 -17.5t98.5 17.5t77 49t50.5 75t18 95.5zM494 780l-123 147h-54l-123 -147h57l93 109l93 -109h57z" />
    <glyph glyph-name="Ugrave" unicode="&#xd9;" horiz-adv-x="687" 
d="M588 231v481h-54v-474q0 -44 -13.5 -80.5t-38.5 -62t-60 -39.5t-78 -14t-78 14t-60 39.5t-38.5 62t-13.5 80.5v474h-54v-481q0 -52 18 -95.5t50.5 -75t77 -49t98.5 -17.5t98.5 17.5t77 49t50.5 75t18 95.5zM391 780l-97 147h-67l106 -147h58z" />
    <glyph glyph-name="dotlessi" unicode="&#x131;" horiz-adv-x="245" 
d="M148 0v482h-51v-482h51z" />
    <glyph glyph-name="circumflex" unicode="&#x2c6;" horiz-adv-x="500" 
d="M400 590l-123 147h-54l-123 -147h57l93 109l93 -109h57z" />
    <glyph glyph-name="tilde" unicode="&#x2dc;" horiz-adv-x="500" 
d="M399 653l-30 29q-23 -23 -35.5 -28t-23.5 -5q-15 0 -27.5 5.5t-28.5 15.5q-18 11 -32.5 17.5t-36.5 6.5q-8 0 -16 -1t-18.5 -5.5t-24 -14.5t-30.5 -27l30 -29q23 23 35 28t24 5q15 0 28.5 -6.5t27.5 -14.5q17 -10 32.5 -17t36.5 -7q7 0 15 1t19 5.5t24.5 14.5t30.5 27z
" />
    <glyph glyph-name="macron" unicode="&#xaf;" horiz-adv-x="500" 
d="M398 608v46h-296v-46h296z" />
    <glyph glyph-name="macron" unicode="&#x2c9;" horiz-adv-x="500" 
d="M398 608v46h-296v-46h296z" />
    <glyph glyph-name="breve" unicode="&#x2d8;" horiz-adv-x="500" 
d="M415 722h-43q-6 -42 -37 -66t-83 -24t-83 24t-37 66h-47q7 -64 46.5 -99.5t120.5 -35.5t118.5 35.5t44.5 99.5z" />
    <glyph glyph-name="dotaccent" unicode="&#x2d9;" horiz-adv-x="500" 
d="M281 643v63h-62v-63h62z" />
    <glyph glyph-name="ring" unicode="&#x2da;" horiz-adv-x="500" 
d="M364 677q0 24 -9 44.5t-24.5 36t-36 24.5t-44.5 9t-44.5 -9t-36 -24.5t-24.5 -36t-9 -44.5t9 -44.5t24.5 -36.5t36 -25t44.5 -9t44.5 9t36 25t24.5 36.5t9 44.5zM323 677q0 -30 -21.5 -51.5t-51.5 -21.5t-51.5 21.5t-21.5 51.5t21.5 51t51.5 21t51.5 -21t21.5 -51z" />
    <glyph glyph-name="cedilla" unicode="&#xb8;" horiz-adv-x="500" 
d="M308 -70h-55l-72 -150h63z" />
    <glyph glyph-name="hungarumlaut" unicode="&#x2dd;" horiz-adv-x="500" 
d="M441 737h-67l-97 -147h57zM294 737h-67l-97 -147h58z" />
    <glyph glyph-name="ogonek" unicode="&#x2db;" horiz-adv-x="500" 
d="M319 -220l-72 150h-55l64 -150h63z" />
    <glyph glyph-name="caron" unicode="&#x2c7;" horiz-adv-x="500" 
d="M400 737h-57l-93 -109l-93 109h-57l123 -147h54z" />
    <glyph glyph-name="Scaron" unicode="&#x160;" horiz-adv-x="587" 
d="M528 191q0 43 -16.5 78.5t-45.5 59.5q-11 9 -23 16.5t-26.5 13t-33.5 9.5t-44 8l-77 12q-30 5 -58.5 16.5t-47.5 27.5q-37 31 -37 93q0 68 43.5 107.5t121.5 39.5q32 0 57 -5t45 -13.5t37 -20.5t34 -27l35 35q-46 40 -92.5 58.5t-112.5 18.5q-103 0 -162 -52.5
t-59 -142.5q0 -84 56 -131q46 -40 127 -52l83 -13q22 -3 37 -6.5t26.5 -7.5t20.5 -10t19 -14q39 -35 39 -100q0 -70 -49 -108.5t-134 -38.5q-32 0 -58.5 4t-50.5 14t-46.5 26t-46.5 40l-38 -38q24 -24 49.5 -42t54 -29.5t61 -17t72.5 -5.5q112 0 176 53t64 144zM437 927h-57
l-93 -109l-93 109h-57l123 -147h54z" />
    <glyph glyph-name="scaron" unicode="&#x161;" horiz-adv-x="494" 
d="M438 137q0 35 -11 58t-29.5 37.5t-44.5 21t-56 9.5l-78 7q-51 5 -74.5 24t-23.5 57q0 45 31.5 69t91.5 24q79 0 135 -41l34 34q-32 24 -75.5 37.5t-93.5 13.5q-79 0 -126 -37t-47 -100q0 -114 145 -126l80 -7q48 -5 70 -24t22 -57q0 -49 -37 -73.5t-108 -24.5
q-102 0 -158 59l-35 -35q37 -35 84.5 -52t110.5 -17q89 0 141 38.5t52 104.5zM395 737h-57l-93 -109l-93 109h-57l123 -147h54z" />
    <glyph glyph-name="Yacute" unicode="&#xdd;" horiz-adv-x="494" 
d="M484 712h-58l-177 -360l-181 360h-58l210 -417v-295h54v295zM365 927h-67l-97 -147h58z" />
    <glyph glyph-name="yacute" unicode="&#xfd;" horiz-adv-x="430" 
d="M416 482h-56l-145 -422l-145 422h-56l176 -482l-39 -107q-7 -18 -13.5 -30.5t-16.5 -20.5t-23.5 -11.5t-34.5 -3.5h-19v-45h24q24 0 48.5 7t42.5 24q19 17 33 56zM333 737h-67l-97 -147h58z" />
    <glyph glyph-name="Thorn" unicode="&#xde;" horiz-adv-x="646" 
d="M586 359q0 49 -16.5 87t-45 64t-68 40t-85.5 14h-207v148h-54v-712h54v154h207q46 0 85.5 13.5t68 40t45 64.5t16.5 87zM532 359q0 -40 -12.5 -69.5t-34.5 -49t-52.5 -29t-67.5 -9.5h-201v314h201q37 0 67.5 -9.5t52.5 -29t34.5 -49t12.5 -69.5z" />
    <glyph glyph-name="thorn" unicode="&#xfe;" horiz-adv-x="540" 
d="M471 241q0 57 -12.5 112.5t-49.5 92.5q-19 19 -49.5 30.5t-68.5 11.5q-41 0 -76 -13t-67 -55v292h-51v-942h51v292q32 -42 67 -55t76 -13q38 0 68.5 11.5t49.5 30.5q37 37 49.5 92.5t12.5 112.5zM420 241q0 -38 -4.5 -74t-19 -64.5t-41.5 -46t-71 -17.5t-71 17.5
t-41.5 46t-19 64.5t-4.5 74q0 37 4.5 73.5t19 65t41.5 46t71 17.5t71 -17.5t41.5 -46t19 -65t4.5 -73.5z" />
    <glyph glyph-name="Zcaron" unicode="&#x17d;" horiz-adv-x="559" 
d="M496 0v48h-378l378 616v48h-418v-48h360l-375 -607v-57h433zM437 927h-57l-93 -109l-93 109h-57l123 -147h54z" />
    <glyph glyph-name="zcaron" unicode="&#x17e;" horiz-adv-x="452" 
d="M398 0v45h-291l291 389v48h-328v-45h274l-290 -389v-48h344zM385 737h-57l-93 -109l-93 109h-57l123 -147h54z" />
    <glyph glyph-name="onehalf" unicode="&#xbd;" horiz-adv-x="764" 
d="M714 0v40h-183l149 188q17 23 25.5 42t8.5 45q0 54 -32.5 85t-85.5 31q-54 0 -86 -32.5t-32 -83.5h44q0 42 22.5 59t51.5 17q35 0 54 -20.5t19 -55.5q0 -32 -23 -62l-168 -213v-40h236zM530 712h-45l-332 -712h45zM169 285v427h-44l-80 -69v-51l80 71v-378h44z" />
    <glyph glyph-name="onequarter" unicode="&#xbc;" horiz-adv-x="756" 
d="M716 67v40h-52v120h-44v-120h-122l153 320h-47l-154 -320v-40h170v-67h44v67h52zM545 712h-45l-332 -712h45zM169 285v427h-44l-80 -69v-51l80 71v-378h44z" />
    <glyph glyph-name="onesuperior" unicode="&#xb9;" horiz-adv-x="249" 
d="M169 285v427h-44l-80 -69v-51l80 71v-378h44z" />
    <glyph glyph-name="threequarters" unicode="&#xbe;" horiz-adv-x="806" 
d="M766 67v40h-52v120h-44v-120h-122l153 320h-47l-154 -320v-40h170v-67h44v67h52zM605 712h-45l-332 -712h45zM302 402q0 79 -65 103q57 25 57 95q0 53 -32.5 84.5t-85.5 31.5q-49 0 -82.5 -29t-37.5 -81h44q3 32 22.5 51t53.5 19q31 0 52.5 -19.5t21.5 -57.5
q0 -36 -18.5 -56.5t-57.5 -20.5h-8v-39h8q44 0 64 -21.5t20 -59.5q0 -39 -23 -60.5t-58 -21.5q-31 0 -55.5 17t-26.5 57h-45q1 -29 11.5 -50.5t27.5 -35.5t39.5 -21t48.5 -7t49 8t40 23.5t26.5 38t9.5 52.5z" />
    <glyph glyph-name="threesuperior" unicode="&#xb3;" horiz-adv-x="352" 
d="M302 402q0 79 -65 103q57 25 57 95q0 53 -32.5 84.5t-85.5 31.5q-49 0 -82.5 -29t-37.5 -81h44q3 32 22.5 51t53.5 19q31 0 52.5 -19.5t21.5 -57.5q0 -36 -18.5 -56.5t-57.5 -20.5h-8v-39h8q44 0 64 -21.5t20 -59.5q0 -39 -23 -60.5t-58 -21.5q-31 0 -55.5 17t-26.5 57
h-45q1 -29 11.5 -50.5t27.5 -35.5t39.5 -21t48.5 -7t49 8t40 23.5t26.5 38t9.5 52.5z" />
    <glyph glyph-name="twosuperior" unicode="&#xb2;" horiz-adv-x="336" 
d="M286 285v40h-183l149 188q18 23 26 42t8 45q0 54 -32.5 85t-85.5 31q-54 0 -86 -32.5t-32 -83.5h44q0 42 22.5 59t51.5 17q35 0 54 -20.5t19 -55.5q0 -32 -23 -62l-168 -213v-40h236z" />
    <glyph glyph-name="brokenbar" unicode="&#xa6;" horiz-adv-x="328" 
d="M184 436v350h-51v-350h51zM184 -74v350h-51v-350h51z" />
    <glyph glyph-name="minus" unicode="&#x2212;" 
d="M461 240v47h-408v-47h408z" />
    <glyph glyph-name="multiply" unicode="&#xd7;" 
d="M443 109l-155 155l155 155l-31 31l-155 -155l-155 155l-31 -31l155 -155l-155 -155l31 -31l155 155l155 -155z" />
    <glyph glyph-name="lslash" unicode="&#x142;" horiz-adv-x="308" 
d="M266 0v45h-35q-43 0 -58.5 20t-15.5 61v262l88 55v45l-88 -55v279h-51v-311l-66 -41v-45l66 41v-231q0 -57 28.5 -91t87.5 -34h44z" />
    <glyph glyph-name="Omega" unicode="&#x3a9;" horiz-adv-x="652" 
d="M570 0v47h-91q23 18 37 34.5t25 36.5q12 22 18 49.5t8.5 58.5t2.5 64v66q0 60 -1 103.5t-7.5 76.5t-20 59t-37.5 50q-35 35 -81 54t-97 19t-97 -19t-81 -54q-24 -24 -37.5 -50t-20 -59t-7.5 -76.5t-1 -103.5v-66t2.5 -64t8.5 -58.5t18 -49.5q11 -20 25 -36.5t37 -34.5
h-91v-47h186v47q-35 17 -60 36.5t-45 51.5q-19 31 -23 85.5t-4 135.5q0 57 1.5 97.5t7 70t16.5 51t30 40.5q27 27 62 41t73 14t73 -14t62 -41q19 -19 30 -40.5t16.5 -51t7 -70t1.5 -97.5q0 -81 -4 -135.5t-23 -85.5q-20 -32 -45 -51.5t-60 -36.5v-47h186z" />
    <glyph glyph-name="Delta" unicode="&#x394;" horiz-adv-x="591" 
d="M581 0l-262 712h-47l-262 -712h571zM511 48h-431l215 592z" />
    <glyph glyph-name="fraction" unicode="&#x2215;" horiz-adv-x="177" 
d="M277 712h-45l-332 -712h45z" />
    <glyph glyph-name="Eth" unicode="&#xd0;" horiz-adv-x="689" 
d="M607 356q0 61 -1.5 98.5t-5.5 62t-11.5 42t-19.5 38.5q-33 57 -86 86t-122 29h-240v-332h-81v-42h81v-338h233q78 0 131.5 32.5t83.5 80.5q11 17 18 33t11.5 40.5t6.5 64.5t2 105zM553 351q0 -53 -0.5 -87.5t-4 -58.5t-10.5 -41.5t-19 -35.5q-28 -42 -71.5 -61.5
t-100.5 -19.5h-172v291h178v42h-178v285h172q54 0 94 -17.5t72 -61.5q15 -20 23 -40t11.5 -46t4.5 -62t1 -87z" />
    <glyph glyph-name="eth" unicode="&#xf0;" horiz-adv-x="526" 
d="M457 241q0 31 -2 56.5t-8.5 50t-19 51.5t-32.5 62l-72 123h57v38h-79l-52 90h-53l53 -90h-95v-38h117l67 -113q-15 9 -35.5 13t-39.5 4q-81 0 -134 -53q-38 -38 -49 -90t-11 -104t11 -104t49 -90q53 -53 134 -53q41 0 74.5 13.5t59.5 39.5q38 38 49 90t11 104zM406 241
q0 -21 -1 -43t-5.5 -43.5t-13 -40.5t-23.5 -34q-20 -20 -45.5 -30.5t-54.5 -10.5q-59 0 -100 41q-15 15 -23.5 34t-13 40.5t-5.5 43.5t-1 43t1 43t5.5 43.5t13 40.5t23.5 34q41 41 100 41q29 0 54.5 -10.5t45.5 -30.5q15 -15 23.5 -34t13 -40.5t5.5 -43.5t1 -43z" />
    <glyph glyph-name="Lslash" unicode="&#x141;" horiz-adv-x="578" 
d="M548 0v48h-378v292l164 104v48l-164 -104v324h-54v-358l-76 -48v-48l76 48v-306h432z" />
    </font>
</defs>
</svg>
